<svg width="390" height="844" viewBox="0 0 390 844" fill="none" xmlns="http://www.w3.org/2000/svg">
<g opacity="0.7">
<path d="M-243.393 89.2067C-243.393 89.2067 -241.074 89.4739 -236.706 89.8922C-234.532 90.0548 -231.82 90.2524 -228.632 90.4731C-225.486 90.6939 -221.801 90.9146 -217.702 91.1005C-213.624 91.1935 -209.09 91.1818 -204.163 91.1005C-201.699 91.0192 -199.132 90.9262 -196.462 90.7984C-193.812 90.659 -191.038 90.4847 -188.181 90.2756C-185.345 90.0432 -182.385 89.776 -179.362 89.4739C-176.319 89.1486 -173.193 88.7652 -169.984 88.3469C-166.817 87.8705 -163.525 87.3361 -160.172 86.7668C-156.818 86.1626 -153.423 85.5003 -149.924 84.7916C-146.447 84.0364 -142.907 83.2347 -139.284 82.3633C-135.661 81.457 -132.017 80.4811 -128.291 79.447C-124.585 78.32 -120.88 77.1 -117.091 75.8104C-113.324 74.4626 -109.515 73.0451 -105.664 71.5463C-101.834 69.9662 -97.9631 68.2931 -94.0711 66.5154C-90.2206 64.6448 -86.3287 62.6581 -82.4368 60.5667C-78.5448 58.4056 -74.6529 56.1632 -70.6989 53.8395C-66.7863 51.4693 -62.8322 49.0178 -58.8368 46.4965C-54.8414 43.9404 -50.8252 41.3262 -46.7677 38.6539C-42.7101 35.9468 -38.6112 33.1932 -34.4709 30.3931C-30.3305 27.5581 -26.1281 24.6883 -21.9049 21.7953C-17.6611 18.8674 -13.3551 15.9046 -9.00773 12.9302C-4.63967 9.93262 -0.188805 6.94663 4.34487 3.94902C8.96136 0.997884 13.6399 -1.96488 18.3806 -4.88116C23.2041 -7.73935 28.0898 -10.6092 33.0375 -13.4325C38.0473 -16.1745 43.1399 -18.8235 48.336 -21.4842C53.5529 -24.0868 58.8525 -26.6197 64.1522 -29.1177C69.5139 -31.6041 74.9585 -34.0091 80.403 -36.3909C85.9097 -38.7379 91.4578 -40.9687 97.0886 -43.1762C102.74 -45.3722 108.412 -47.4867 114.126 -49.5665C119.902 -51.5765 125.719 -53.482 131.702 -55.2829C137.85 -56.9908 144.04 -58.629 150.333 -59.9187C156.689 -61.0806 162.837 -62.3354 168.882 -63.6018C174.865 -64.8799 180.455 -66.2857 186.003 -67.6335C191.447 -68.9464 196.871 -70.1896 202.253 -71.3979C207.677 -72.583 213.039 -73.4312 218.401 -74.1864C223.845 -74.7557 229.269 -75.2902 234.61 -75.8014C240.013 -76.301 245.354 -76.7541 250.633 -77.1956C255.933 -77.6139 261.191 -77.9973 266.346 -78.3575C271.563 -78.7061 276.676 -79.0198 281.748 -79.3218C286.841 -79.6007 291.83 -79.8912 296.777 -80.1468C301.684 -80.3908 306.549 -80.6115 311.31 -80.809C316.113 -80.9949 320.75 -81.1576 325.367 -81.3086C329.921 -81.4597 334.434 -81.5759 338.802 -81.6921C343.211 -81.785 347.497 -81.8547 351.678 -81.9244C355.839 -81.9709 359.918 -81.9593 363.83 -81.9244C367.784 -81.8896 371.614 -81.8431 375.299 -81.8082C378.984 -81.7501 382.545 -81.6921 385.981 -81.634C392.854 -81.4829 399.148 -81.2041 404.82 -80.7626C410.492 -80.3094 415.564 -79.8795 419.953 -79.4845C424.362 -79.0895 428.13 -78.7293 431.173 -78.4504C437.28 -77.8579 440.551 -77.5326 440.551 -77.5326C440.551 -77.5326 440.137 -75.4993 439.557 -72.4436C439.33 -70.9216 439.04 -69.1555 438.771 -67.2501C438.522 -65.333 438.295 -63.2881 438.087 -61.2316C437.901 -59.1635 437.756 -57.0954 437.632 -55.1667C437.549 -53.238 437.487 -51.4255 437.446 -49.8802C437.425 -46.7548 437.549 -44.675 437.549 -44.675C437.549 -44.675 434.278 -45.0817 428.213 -45.744C425.19 -45.9415 421.464 -46.1506 417.096 -46.4062C412.749 -46.627 407.739 -46.8942 402.129 -47.173C396.518 -47.3706 390.329 -47.5332 383.601 -47.6843C380.226 -47.754 376.728 -47.8121 373.125 -47.8585C369.503 -47.905 365.756 -47.9166 361.864 -47.9283C358.034 -47.9399 354.038 -47.9283 349.939 -47.905C345.841 -47.8702 341.638 -47.8237 337.291 -47.7656C332.985 -47.7075 328.534 -47.6262 324.062 -47.5332C319.508 -47.4054 314.954 -47.266 310.213 -47.1266C305.555 -46.9523 300.773 -46.7548 295.929 -46.5224C291.043 -46.2319 286.116 -45.8718 281.106 -45.4651C276.117 -45.0468 271.066 -44.6053 265.932 -44.1173C260.839 -43.6294 255.664 -43.1065 250.426 -42.5372C245.209 -41.9563 239.765 -41.387 234.238 -40.7828C228.69 -40.1554 223.141 -39.3421 217.593 -38.4126C211.818 -37.5412 205.856 -36.6233 199.831 -35.4963C193.849 -34.3344 188.052 -32.9983 182.235 -31.6041C176.563 -30.0704 170.911 -28.3624 165.259 -26.5267C159.753 -24.6329 154.329 -22.6809 148.946 -20.6012C143.626 -18.4866 138.347 -16.2791 133.192 -14.025C128.038 -11.7362 122.904 -9.37757 117.811 -6.97251C112.801 -4.4745 107.833 -1.94164 102.906 0.64932C98.0202 3.29837 93.1967 5.98228 88.3939 8.67781C83.6739 11.4895 79.016 14.4058 74.4202 17.3453C69.9279 20.3546 65.4564 23.4103 61.0676 26.5241C56.7617 29.7424 52.5799 32.9956 48.4809 36.2837C44.4441 39.595 40.4694 42.9528 36.5774 46.3455C32.7476 49.7381 28.9385 53.1308 25.2122 56.5118C21.4859 59.8696 17.801 63.2274 14.1575 66.5387C10.514 69.8616 6.91189 73.1265 3.30979 76.3448C-0.271612 79.5283 -3.853 82.6886 -7.4344 85.7792C-11.0158 88.8349 -14.5972 91.8092 -18.1786 94.7604C-21.8014 97.6418 -25.4242 100.454 -29.0677 103.172C-32.7319 105.868 -36.4375 108.482 -40.1431 110.98C-43.8901 113.455 -47.6372 115.848 -51.4256 118.149C-55.2761 120.391 -59.1266 122.541 -62.9771 124.597C-66.9105 126.584 -70.8231 128.513 -74.7357 130.337C-78.7105 132.091 -82.7059 133.753 -86.7013 135.298C-90.7589 136.785 -94.7543 138.214 -98.7497 139.55C-102.807 140.817 -106.803 142.025 -110.777 143.187C-114.752 144.267 -118.727 145.278 -122.619 146.243C-126.531 147.172 -130.382 148.02 -134.17 148.799C-137.979 149.554 -141.747 150.228 -145.432 150.832C-149.117 151.39 -152.74 151.924 -156.238 152.412C-159.758 152.842 -163.174 153.272 -166.444 153.632C-169.736 153.957 -172.945 154.248 -176.029 154.503C-179.093 154.759 -182.074 154.968 -184.952 155.154C-190.707 155.445 -195.986 155.642 -200.726 155.793C-205.467 155.886 -209.711 155.956 -213.354 155.921C-217.039 155.828 -220.207 155.677 -222.712 155.572C-227.763 155.27 -230.454 155.073 -230.454 155.073C-230.454 155.073 -231.613 151.332 -233.27 145.615C-234.077 142.722 -234.946 139.399 -235.837 135.786C-236.727 132.114 -237.596 128.164 -238.404 124.121C-239.17 120.054 -239.873 115.93 -240.494 111.921C-241.095 107.82 -241.633 103.928 -242.088 100.535C-242.896 93.7263 -243.393 89.2067 -243.393 89.2067Z" stroke="white"/>
<path d="M-219.236 184.525C-219.236 184.525 -216.318 184.641 -210.855 184.815C-208.145 184.862 -204.71 184.919 -200.716 184.966C-196.702 184.954 -192.005 184.908 -186.769 184.815C-181.534 184.664 -175.72 184.398 -169.45 183.992C-166.263 183.772 -162.994 183.505 -159.642 183.227C-156.331 182.914 -152.875 182.566 -149.275 182.184C-145.716 181.801 -142.032 181.349 -138.266 180.874C-134.5 180.387 -130.569 179.865 -126.617 179.204C-122.706 178.544 -118.65 177.825 -114.574 177.025C-110.456 176.19 -106.297 175.309 -102.055 174.347C-97.8542 173.362 -93.6123 172.283 -89.329 171.171C-85.1077 169.977 -80.8451 168.725 -76.5618 167.415C-72.2578 166 -67.933 164.528 -63.5876 162.951C-59.325 161.328 -55.0417 159.59 -50.779 157.77C-46.5578 155.88 -42.3573 153.909 -38.1567 151.811C-34.101 149.666 -30.066 147.394 -26.0517 145.064C-22.1615 142.618 -18.4576 140.126 -14.8364 137.54C-11.298 134.92 -7.80099 132.185 -4.34536 129.391C-0.972502 126.516 2.37966 123.583 5.69044 120.58C8.95984 117.508 12.1672 114.39 15.3745 111.19C18.5404 107.956 21.727 104.664 24.8723 101.337C28.0175 97.9515 31.1421 94.5201 34.3494 91.1002C37.5567 87.6572 40.8054 84.191 44.0955 80.7132C47.3856 77.2007 50.7377 73.6765 54.1313 70.1407C57.5455 66.605 61.0425 63.046 64.6223 59.5335C68.2435 56.0441 71.9681 52.6127 75.8583 49.1928C79.8519 45.9237 83.9283 42.701 88.0875 39.5246C92.3501 36.3946 96.6955 33.3457 101.082 30.3316C105.573 27.3871 110.125 24.5005 114.76 21.7415C119.499 19.0404 124.237 16.3741 129.038 13.7657C133.88 11.2154 138.742 8.71135 143.667 6.30008C148.613 3.92359 153.579 1.63984 158.586 -0.539579C163.656 -2.67262 168.705 -4.72452 173.816 -6.70686C178.989 -8.57328 184.142 -10.4049 189.315 -12.1554C194.55 -13.7668 199.744 -15.297 204.875 -16.8272C210.131 -18.114 215.387 -19.2965 220.684 -20.3166C226.251 -21.1281 231.796 -21.8353 237.28 -22.3569C242.639 -22.925 247.957 -23.4814 253.254 -23.9915C258.593 -24.4784 263.89 -24.9421 269.104 -25.3942C274.257 -25.8695 279.244 -26.368 284.106 -26.8433C288.99 -27.3186 293.811 -27.6895 298.591 -28.0373C303.371 -28.3735 308.13 -28.6749 312.786 -28.9647C317.483 -29.2314 322.056 -29.4632 326.609 -29.6835C331.099 -29.8805 335.589 -29.9617 339.976 -29.9733C344.404 -29.9849 348.687 -29.9849 352.909 -29.9501C357.088 -29.9037 361.206 -29.8574 365.138 -29.7994C369.131 -29.7183 372.939 -29.6835 376.622 -29.6139C380.326 -29.5444 383.926 -29.4748 387.403 -29.4053C394.335 -29.2082 400.687 -28.9995 406.46 -28.7908C412.192 -28.5938 417.324 -28.3387 421.876 -28.0953C426.429 -27.8402 430.339 -27.562 433.485 -27.3186C439.817 -26.8085 443.189 -26.5187 443.189 -26.5187C443.189 -26.5187 444.286 -24.3972 445.879 -21.1281C446.666 -19.482 447.576 -17.5228 448.59 -15.4245C449.563 -13.3379 450.639 -11.0889 451.777 -8.81672C452.956 -6.55616 454.218 -4.24922 455.419 -2.11618C456.557 -0.0295037 457.715 1.92965 458.688 3.62218C460.468 7.11156 461.688 9.46487 461.688 9.46487C461.688 9.46487 458.543 9.01276 452.646 8.23605C449.707 7.85349 446.066 7.38979 441.782 6.87971C437.52 6.36964 432.595 5.81319 427.111 5.25674C421.607 4.80463 415.524 4.31774 408.902 3.84244C405.612 3.66855 402.239 3.54103 398.742 3.4367C395.266 3.33236 391.624 3.22803 387.899 3.15847C384.195 3.08892 380.367 3.07732 376.477 3.07732C372.566 3.1121 368.614 3.19325 364.538 3.30918C360.503 3.4251 356.302 3.52944 352.039 3.62218C347.715 3.7497 343.369 3.9004 338.796 4.08589C334.306 4.31774 329.547 4.54959 324.705 4.80463C319.925 5.14082 315.166 5.51178 310.179 5.83637C305.213 6.19574 300.184 6.5783 295.073 6.99564C289.983 7.43616 284.831 7.89986 279.616 8.39835C274.422 8.93161 269.291 9.55761 264.304 10.3575C259.379 11.2154 254.454 12.1544 249.405 13.047C244.398 13.9744 239.349 14.9366 234.341 15.9915C229.582 17.2899 224.781 18.8549 219.919 20.4779C215.056 22.124 210.255 23.9441 205.413 25.8916C200.592 27.8624 195.771 29.9491 190.949 32.1053C186.19 34.3427 181.431 36.696 176.692 39.1188C171.954 41.6113 167.257 44.1732 162.601 46.8279C158.069 49.5406 153.682 52.3924 149.378 55.3601C145.198 58.4206 141.101 61.5274 137.149 64.727C133.259 67.9613 129.472 71.2536 125.789 74.5691C122.292 77.931 119.002 81.4088 116.022 85.0141C113.229 88.689 110.601 92.3522 108.056 96.0155C105.573 99.702 103.089 103.4 100.172 107.318C96.9852 111.318 93.7779 115.352 90.5499 119.328C87.0322 123.386 83.4731 127.443 79.8933 131.501C76.3963 135.546 72.9821 139.534 69.5471 143.487C66.0915 147.429 62.6358 151.347 59.2423 155.184C55.7867 158.987 52.3104 162.72 48.8134 166.406C45.2543 170.046 41.6745 173.617 38.1154 177.129C34.5356 180.584 30.9145 183.969 27.2726 187.238C23.548 190.496 19.844 193.684 16.078 196.767C12.2292 199.793 8.33908 202.703 4.2006 205.253C-0.600029 207.177 -5.50413 208.939 -10.3875 210.586C-15.3123 212.162 -20.2164 213.646 -25.017 215.084C-29.8591 216.451 -34.639 217.75 -39.3776 218.967C-44.1782 220.15 -48.9167 221.262 -53.6139 222.306C-58.2904 223.291 -62.9048 224.219 -67.4364 225.065C-71.8853 225.865 -76.2721 226.514 -80.5968 227.105C-84.8801 227.685 -89.122 228.206 -93.3226 228.751C-97.6887 229.319 -101.972 229.841 -106.11 230.316C-110.27 230.78 -114.325 231.197 -118.257 231.568C-122.209 231.939 -126.037 232.275 -129.741 232.565C-133.383 232.82 -136.901 233.052 -140.336 233.249C-147.185 233.562 -153.496 233.759 -159.166 233.875C-164.856 233.91 -169.905 233.887 -174.168 233.852C-178.368 233.782 -181.886 233.736 -184.597 233.69C-190.101 233.574 -193.184 233.551 -193.184 233.551C-193.184 233.551 -195.15 230.652 -197.84 226.317C-199.123 224.149 -200.633 221.564 -202.268 218.654C-204.006 215.721 -205.827 212.568 -207.565 209.415C-209.2 206.285 -210.628 203.201 -211.89 200.303C-213.297 197.428 -214.601 194.727 -215.615 192.397C-217.787 187.69 -219.236 184.525 -219.236 184.525Z" stroke="white"/>
<path d="M-164.654 311.407C-164.654 311.407 -161.427 311.674 -155.325 312.151C-152.264 312.36 -148.417 312.616 -143.846 312.884C-139.274 313.105 -133.938 313.349 -128.022 313.57C-122.107 313.744 -115.612 313.814 -108.538 313.849C-105.001 313.861 -101.319 313.884 -97.5131 313.884C-93.5624 313.849 -89.3015 313.767 -84.9165 313.674C-80.5728 313.547 -76.0016 313.36 -72.4232 313.477C-69.6516 313.849 -66.8385 314.186 -63.9427 314.5C-60.9849 314.709 -57.8616 314.872 -54.6349 314.977C-51.3461 315.023 -47.8505 315 -44.1687 314.93C-40.4455 314.791 -36.4535 314.488 -32.3374 314.105C-28.1178 313.628 -23.7534 313.046 -21.23 313.081C-19.2236 313.244 -16.9897 313.302 -14.4869 313.209C-11.86 313.035 -8.86083 312.686 -5.61342 312.174C-2.01437 311.465 2.22587 310.36 7.21075 308.79C13.3333 306.465 20.3659 303.534 28.2052 300.069C36.4374 296.278 45.1248 292.126 54.2879 287.661C63.513 283.067 73.2966 278.102 83.556 272.81C94.1256 267.275 104.902 261.565 116.237 255.588C125.793 250.332 130.385 246.459 134.853 242.471C139.176 238.424 143.354 234.295 147.387 230.109C151.297 225.876 155.061 221.585 158.722 217.271C162.28 212.933 165.693 208.549 169.002 204.107C172.188 199.641 175.332 195.152 178.413 190.699C181.433 186.245 184.391 181.779 187.308 177.337C190.162 172.906 192.996 168.522 195.871 164.138C198.746 159.824 201.642 155.591 204.662 151.532C207.744 147.544 210.991 143.753 214.321 140.113C217.713 136.566 221.188 133.101 224.705 129.716C228.262 126.426 231.923 123.204 235.833 120.39C240.135 117.913 244.81 115.657 249.464 113.529C254.035 111.517 258.647 109.564 263.177 107.645C267.728 105.819 272.299 104.075 276.911 102.435C281.545 100.842 286.281 99.3999 291.059 98.1091C295.693 96.795 300.264 95.5042 304.876 94.3646C309.551 93.2715 314.164 92.2132 318.652 91.1666C323.016 90.0968 327.339 89.0502 331.456 88.1315C335.551 87.2244 339.626 86.3988 343.68 85.6429C347.775 84.9335 352.016 84.3753 356.339 83.9567C360.703 83.5729 365.067 83.3055 369.432 83.1427C373.879 83.0845 378.243 83.0264 382.587 82.9915C386.806 82.9566 391.005 82.9566 395.121 82.9915C399.3 83.038 403.333 83.1078 407.346 83.1892C411.296 83.2822 415.206 83.3869 418.991 83.5148C422.797 83.6776 426.458 83.852 430.057 84.0265C433.614 84.2358 437.069 84.4451 440.378 84.6428C443.75 84.9568 447.018 85.2708 450.141 85.5847C453.285 85.9104 456.305 86.236 459.221 86.5616C465.013 87.2361 470.329 87.8989 475.128 88.5269C479.968 89.3176 484.229 89.934 487.89 90.4805C491.572 91.0387 494.715 91.5271 497.239 91.9341C502.348 92.9342 505.161 93.6668 505.161 93.6668C505.161 93.6668 506.319 96.5741 508.057 100.993C508.905 103.214 509.877 105.819 510.891 108.529C511.883 111.238 512.897 114.145 513.931 117.076C514.945 120.006 515.937 122.972 516.91 125.798C517.902 128.623 518.916 131.31 519.847 133.647C521.977 138.38 523.591 141.578 523.591 141.578C523.591 141.578 520.881 140.683 515.834 139.171C513.352 138.485 510.27 137.671 506.671 136.729C503.072 135.81 498.914 134.763 494.24 133.635C489.606 132.6 484.642 131.845 479.223 131.124C476.534 130.81 473.742 130.496 470.846 130.17C467.867 129.903 464.723 129.623 461.476 129.356C458.208 129.089 454.816 128.821 451.32 128.565C447.825 128.309 444.246 128.065 440.523 127.809C436.841 127.623 433.097 127.542 429.354 127.507C425.548 127.472 421.742 127.449 417.874 127.472C414.027 127.542 410.138 127.681 406.187 127.844C402.278 128.065 398.224 128.275 394.004 128.507C389.785 128.775 385.545 129.1 381.222 129.461C376.981 129.879 372.803 130.426 368.77 131.135C364.798 131.903 360.786 132.694 356.752 133.566C352.781 134.461 348.872 135.438 344.983 136.508C341.136 137.624 337.288 138.799 333.441 140.02C329.491 141.322 325.54 142.729 321.403 144.125C317.37 145.59 313.336 147.137 309.261 148.73C305.207 150.381 301.133 152.091 297.037 153.87C292.942 155.707 288.95 157.765 285.082 159.963C281.193 162.219 277.346 164.58 273.478 166.987C269.672 169.499 265.969 172.209 262.329 175.081C258.668 178 254.738 181.174 249.794 185.012C244.623 189.315 239.225 194.234 233.682 199.467C228.055 204.967 222.285 210.689 216.307 216.48C210.081 222.376 203.731 228.26 197.133 234.226C184.888 241.238 171.36 248.634 157.771 255.983C144.161 263.31 130.55 270.543 117.106 277.66C103.806 284.718 91.0643 291.486 78.2608 298.196C65.6642 304.697 53.5639 310.849 41.6706 316.791C29.984 322.501 18.5663 328.013 7.47962 333.269C-3.23477 338.223 -13.3493 342.875 -23.0295 347.247C-32.296 351.387 -41.3556 355.352 -49.8568 359.039C-57.903 362.481 -65.5147 365.656 -72.6508 368.563C-79.4559 371.249 -85.8473 373.656 -91.887 375.831C-97.5131 377.738 -102.746 379.378 -107.545 380.704C-111.971 381.75 -116.046 382.564 -119.79 383.146C-123.306 383.529 -126.574 383.762 -129.594 383.82C-132.49 383.75 -135.22 383.576 -137.744 383.274C-140.164 382.867 -142.398 382.378 -144.135 381.552C-145.707 380.657 -147.176 379.692 -148.5 378.692C-149.72 377.61 -150.858 376.529 -151.892 375.424C-152.843 374.284 -153.691 373.121 -154.332 371.889C-154.891 370.645 -155.367 369.365 -155.718 368.086C-156.008 366.772 -156.235 365.47 -156.38 364.214C-156.525 362.946 -156.566 361.69 -156.566 360.458C-156.525 359.213 -156.401 357.969 -156.153 356.713C-155.511 354.155 -154.808 351.748 -154.519 349.631C-157.373 348.084 -159.897 346.666 -161.986 345.41C-164.075 344.107 -166.143 343.084 -169.142 342.747C-175.223 342.049 -178.471 341.677 -178.471 341.677C-178.471 341.677 -177.23 339.886 -175.492 337.153C-174.644 335.758 -173.714 334.118 -172.741 332.339C-171.831 330.525 -170.9 328.583 -170.032 326.676C-169.142 324.792 -168.336 322.954 -167.612 321.21C-166.95 319.454 -166.371 317.779 -165.895 316.337C-165.088 313.395 -164.654 311.407 -164.654 311.407Z" stroke="white"/>
<path d="M-197.088 358.338C-197.088 358.338 -197.688 359.797 -198.682 362.496C-199.096 363.804 -199.613 365.46 -200.131 367.371C-200.607 369.247 -200.938 371.436 -200.855 374.215C-200.669 376.948 -200.275 379.866 -199.737 383.086C-199.406 384.649 -199.013 386.27 -198.537 387.903C-198.019 389.478 -197.419 391.041 -196.736 392.582C-195.97 394.041 -195.163 395.546 -194.293 397.029C-193.362 398.453 -192.368 399.866 -191.313 401.29C-190.195 402.61 -188.849 403.641 -187.462 404.649C-186.034 405.575 -184.544 406.455 -182.971 407.266C-181.356 407.984 -179.679 408.679 -177.941 409.246C-176.14 409.744 -174.277 410.172 -172.269 410.485C-170.199 410.717 -168.067 410.798 -165.852 410.775C-163.058 411.006 -159.973 411.134 -156.661 411.099C-153.184 410.913 -149.479 410.508 -145.525 409.86C-141.323 408.968 -136.852 407.845 -132.091 406.432C-126.978 404.776 -121.638 402.911 -115.883 400.827C-109.984 398.534 -103.753 395.998 -97.2951 393.277C-90.5884 390.324 -83.592 387.162 -76.2436 383.792C-68.4813 380.237 -60.2843 376.415 -51.7146 372.339C-42.7517 368.077 -33.1057 363.538 -23.4183 358.894C-13.172 353.996 -2.44966 348.866 8.72811 343.515C20.382 337.876 32.305 332.039 44.704 325.925C57.1444 319.706 69.8954 313.233 83.1017 306.458C96.3908 299.579 109.68 292.666 123.342 285.59C137.003 278.433 150.541 271.265 164.037 264.016C177.161 257.021 190.098 250.154 202.6 243.53C214.751 237.126 226.633 231.405 233.691 226.634C239.259 222.315 244.62 218.273 249.837 214.463C254.97 210.838 259.959 207.411 264.885 204.18C269.75 201.03 274.552 198.123 279.313 195.355C284.074 192.738 288.918 190.341 293.678 188.118C298.439 186.01 303.159 183.972 307.858 181.992C312.556 180.116 317.235 178.286 321.995 176.271C326.715 174.43 331.207 172.577 335.657 170.805C340.17 169.079 344.662 167.423 349.112 165.883C353.583 164.401 358.075 162.988 362.442 161.714C366.955 160.568 371.447 159.468 375.98 158.391C380.451 157.372 385.046 156.584 389.787 156.005C394.61 155.496 399.412 155.067 404.256 154.72C409.12 154.43 413.798 154.152 418.455 153.944C423.154 153.909 427.894 153.944 432.552 154.06C436.982 154.152 440.666 154.187 444.392 154.291C448.056 154.395 451.637 154.465 455.094 154.534C458.654 154.708 462.049 154.882 465.381 155.09C468.714 155.299 471.985 155.53 475.131 155.773C478.339 156.121 481.465 156.503 484.591 157.094C487.716 157.684 490.697 158.24 493.595 158.808C499.308 159.942 504.545 161.043 509.265 162.038C514.15 163.139 518.621 164.262 522.471 165.258C526.362 166.3 529.695 167.25 532.407 168.06C537.789 169.693 540.645 170.585 540.645 170.585C540.645 170.585 542.653 173.966 545.696 179.096C547.165 181.667 548.925 184.69 550.767 187.932C548.511 189.403 546.048 190.966 543.688 192.576C541.494 194.244 539.279 196.004 537.209 197.706C535.325 199.478 533.649 201.169 532.282 202.651C529.778 205.697 528.225 207.735 528.225 207.735C528.225 207.735 524.975 206.959 518.911 205.592C515.888 204.956 512.183 204.18 507.836 203.3C503.531 202.501 498.563 201.609 493.015 200.717C487.489 199.953 481.465 199.212 474.903 198.517C471.674 198.262 468.362 198.007 464.947 197.81C461.531 197.614 457.909 197.463 454.183 197.359C450.498 197.243 446.69 197.22 442.819 197.22C438.927 197.347 435.057 197.533 431.082 197.776C427.17 198.1 423.154 198.471 419.139 198.899C415.061 199.339 410.983 199.86 406.76 200.497C402.517 201.111 398.191 201.771 393.802 202.697C389.435 203.624 385.15 204.712 380.989 205.963C376.849 207.272 372.668 208.673 368.425 210.12C364.243 211.591 359.958 213.155 355.653 214.753C351.347 216.49 346.98 218.285 342.592 220.138C338.245 222.014 333.794 223.971 329.323 225.962C323.362 228.047 315.682 230.178 307.816 232.401C299.619 234.567 291.257 236.964 282.853 239.581C274.428 242.291 265.982 245.255 257.558 248.428C248.926 251.775 240.087 255.307 231.124 259.013C222.079 262.823 212.764 266.818 203.242 270.999C193.389 275.307 183.453 279.754 173.352 284.42C163.064 289.319 152.259 294.414 140.998 299.718C129.386 305.173 117.484 310.766 105.478 316.475C93.6171 322.231 81.3215 328.264 69.026 334.297C56.9374 340.25 45.0352 346.167 33.2571 351.992C21.8517 357.69 10.7774 363.214 0.220587 368.518C-9.9636 373.763 -19.651 378.847 -28.8623 383.781C-38.0322 388.667 -46.6847 393.415 -54.861 398.071C-62.6233 402.587 -70.0959 406.884 -76.9888 410.995C-83.9439 415.013 -90.6712 418.835 -97.1295 422.482C-103.422 425.933 -109.632 429.211 -115.449 432.337C-120.127 435.661 -122.611 439.494 -124.722 443.304C-126.833 446.94 -129.793 450.287 -136.003 453.24C-141.82 456.066 -147.285 458.729 -152.418 461.207C-157.282 463.535 -161.878 465.724 -166.163 467.739C-170.24 469.592 -174.049 471.224 -177.589 472.579C-181.19 473.564 -184.627 474.363 -187.897 474.953C-191.043 475.382 -194.045 475.683 -196.839 475.776C-199.572 475.752 -202.138 475.602 -204.622 475.37C-207.024 475.011 -209.28 474.548 -211.412 473.981C-213.44 473.309 -215.365 472.602 -217.187 471.815C-218.884 470.9 -220.478 469.951 -221.989 469.013C-223.438 467.97 -224.825 466.916 -226.088 465.816C-227.268 464.647 -228.365 463.466 -229.317 462.273C-230.207 461.034 -230.994 459.771 -231.656 458.521C-232.236 457.189 -232.753 455.904 -233.167 454.618C-233.498 453.309 -233.767 452.024 -233.954 450.762C-234.161 448.179 -234.181 445.782 -233.974 443.211C-233.353 440.571 -235.341 437.919 -236.955 435.591C-238.508 433.183 -239.729 431.098 -240.66 429.373C-242.503 425.679 -243.393 423.698 -243.393 423.698C-243.393 423.698 -242.171 419.587 -240.164 413.38C-238.922 410.497 -237.328 407.034 -235.506 403.236C-233.478 399.368 -231.097 395.164 -228.53 390.914C-225.653 386.479 -222.569 382.067 -219.423 377.956C-216.049 373.833 -212.695 369.988 -209.549 366.665C-202.449 360.886 -197.088 358.338 -197.088 358.338Z" stroke="white"/>
<path d="M-266.824 455.476C-266.824 455.476 -267.155 457.345 -267.507 460.781C-267.465 462.325 -267.3 464.113 -267.031 466.144C-266.679 468.141 -266.121 470.404 -265.294 472.865C-264.322 475.233 -263.039 477.74 -261.467 480.399C-260.64 481.687 -259.606 483.057 -258.427 484.461C-257.206 485.82 -255.862 487.166 -254.435 488.571C-252.925 489.929 -251.312 491.31 -249.595 492.668C-247.837 493.957 -245.955 495.257 -243.99 496.499C-241.983 497.706 -239.832 498.879 -237.619 500.005C-235.344 501.038 -232.986 502.024 -230.546 502.953C-228.022 503.65 -225.416 504.265 -222.727 504.81C-220.018 505.251 -217.246 505.6 -214.433 505.878C-211.579 506.029 -208.704 506.064 -205.746 505.96C-202.851 505.704 -199.913 505.275 -196.935 504.706C-193.957 503.975 -190.937 503.057 -187.855 501.885C-184.753 500.55 -181.547 499.006 -178.279 497.242C-174.99 495.303 -171.515 493.191 -167.854 490.881C-164.049 488.524 -160.346 486.087 -156.437 483.498C-152.321 480.793 -147.874 477.961 -143.138 474.966C-138.298 471.785 -133.168 468.477 -127.563 464.983C-121.524 461.373 -114.988 457.635 -108.1 453.863C-103.074 449.835 -101.068 445.458 -99.1234 440.838C-93.4355 436.985 -87.3959 433.119 -81.1289 429.149C-74.655 425.052 -68.0777 420.803 -61.5624 416.415C-54.468 411.888 -46.9806 407.256 -39.0796 402.509C-30.9096 397.668 -22.4708 392.746 -13.7838 387.685C-4.64173 382.543 5.01737 377.377 15.1109 372.131C25.5146 366.826 36.0218 361.521 46.8392 356.216C57.4498 351.062 67.9776 346.094 78.4227 341.253C88.9092 336.471 99.1474 331.839 109.282 327.277C119.541 322.796 129.759 318.362 140.018 313.939C150.401 309.54 160.784 305.117 171.084 300.892C180.971 296.736 190.609 292.685 200.062 288.704C209.348 284.803 218.449 281.007 227.281 277.339C236.009 273.834 244.593 270.363 252.949 267.02C261.346 263.99 269.578 261.053 277.769 258.267C285.939 255.598 294.088 253.055 301.989 250.664C309.828 248.342 317.522 246.114 324.948 244.071C331.815 242.422 338.578 240.855 345.197 239.346C351.836 237.895 358.331 236.514 364.743 235.191C371.03 233.995 377.153 232.881 383.275 231.859C389.707 231.105 395.23 230.327 399.408 229.468C403.565 228.62 407.557 227.82 411.549 227.123C415.5 226.566 419.43 226.043 423.235 225.568C427.103 225.126 430.867 224.72 434.57 224.418C438.313 224.163 441.995 223.942 445.553 223.78C449.151 223.606 452.688 223.385 456.06 223.188C459.41 223.002 462.616 222.933 465.781 222.898C472.131 222.921 478.005 223.014 483.3 223.188C488.636 223.466 493.497 223.838 497.757 224.221C502.06 224.662 505.741 225.126 508.678 225.591C514.47 226.659 517.551 227.251 517.551 227.251C517.551 227.251 516.807 229.746 515.607 233.496C515.09 235.411 514.49 237.628 514.015 240.054C513.56 242.504 513.167 245.15 512.836 247.809C512.505 250.525 510.705 252.765 507.541 254.379C504.438 256.004 501.542 257.548 499.143 258.894C494.572 261.634 491.677 263.491 491.677 263.491C491.677 263.491 487.871 263.131 480.673 262.574C477.136 262.33 472.689 262.075 467.374 261.808C461.955 261.68 455.708 261.68 448.614 261.785C441.457 261.959 433.453 262.202 424.518 262.806C419.988 263.236 415.293 263.7 410.391 264.234C405.489 264.803 400.339 265.464 395.044 266.219C389.77 267.008 384.288 267.867 378.538 268.749C372.726 269.678 366.914 270.758 361.082 272.081C355.27 273.451 349.272 274.878 343.149 276.399C336.924 277.978 330.656 279.591 324.079 281.344C317.481 283.167 310.656 285.059 303.665 287.067C296.57 289.168 289.331 291.385 281.906 293.742C274.48 296.168 266.931 298.652 259.175 301.287C251.108 303.991 242.835 306.638 234.293 309.319C225.73 312.071 217.063 314.949 208.211 317.875C199.462 320.869 190.444 324.143 181.343 327.451C172.118 330.748 162.873 334.068 153.565 337.457C144.382 340.812 135.178 344.178 125.912 347.638C116.997 351.074 108.414 354.498 99.9127 357.957C91.3912 361.44 82.911 364.934 74.5756 368.428C66.4057 371.875 58.2771 375.416 50.2726 378.991C42.3302 382.52 34.6567 386.072 26.9625 389.717C19.2476 393.582 11.6361 397.645 4.1487 401.882C-3.04912 406.188 -10.0401 410.483 -16.8242 414.79C-23.6291 419.248 -30.2478 423.728 -36.4528 428.232C-42.3062 432.713 -47.6838 437.124 -53.2477 441.338C-58.8529 445.528 -62.7413 449.846 -65.5336 454.385C-72.9796 458.703 -79.7638 462.975 -86.0929 467.177C-91.8842 471.286 -97.2826 475.349 -102.371 479.238C-107.024 483.092 -111.285 486.876 -115.05 490.637C-118.152 494.479 -120.965 498.205 -123.323 501.862C-125.577 505.414 -127.646 508.885 -129.528 512.251C-131.265 515.49 -133.065 518.67 -134.988 521.712C-136.788 524.695 -138.484 527.632 -140.097 530.429C-141.69 533.134 -143.303 535.711 -144.854 538.195C-146.385 540.598 -148.019 542.792 -149.777 544.846C-151.638 546.797 -153.707 548.573 -156.003 550.093C-158.671 551.347 -161.567 552.38 -164.648 553.227C-167.896 553.959 -171.226 554.539 -174.638 554.992C-178.155 555.352 -181.712 555.584 -185.311 555.723C-188.951 555.77 -192.53 555.7 -196.149 555.514C-199.769 555.236 -203.347 554.922 -206.904 554.516C-210.607 553.901 -214.247 553.169 -217.784 552.415C-221.341 551.556 -224.816 550.662 -228.208 549.71C-231.621 548.677 -234.93 547.621 -238.095 546.553C-241.26 545.438 -244.341 544.278 -247.278 543.105C-250.236 541.863 -253.111 540.563 -255.883 539.24C-258.634 537.812 -261.302 536.315 -263.846 534.829C-268.789 531.753 -273.174 528.827 -276.98 526.088C-280.703 523.244 -283.929 520.597 -286.577 518.287C-289.183 515.85 -291.334 513.725 -292.989 511.996C-296.174 508.432 -297.746 506.528 -297.746 506.528C-297.746 506.528 -297.353 503.313 -296.484 498.53C-295.905 496.127 -295.078 493.365 -294.044 490.37C-292.865 487.363 -291.375 484.148 -289.7 480.956C-287.818 477.764 -285.294 474.757 -282.874 471.89C-280.31 469.069 -277.786 466.353 -275.387 463.88C-270.382 458.866 -266.824 455.476 -266.824 455.476Z" stroke="white"/>
<path d="M-296.236 535.144C-296.236 535.144 -293.812 537.031 -289.09 540.504C-286.707 542.171 -283.642 544.208 -280.017 546.501C-276.33 548.7 -271.897 551.212 -266.884 553.829C-261.85 556.214 -256.299 558.645 -250.126 561.111C-246.978 562.303 -243.705 563.461 -240.287 564.63C-236.869 565.741 -233.285 566.829 -229.578 567.883C-225.849 568.913 -222.079 569.921 -218.247 570.881C-214.373 571.796 -210.417 572.606 -206.378 573.359C-202.38 574.03 -198.258 574.644 -194.073 575.2C-189.91 575.674 -185.726 576.068 -181.479 576.369C-177.316 576.577 -173.193 576.67 -169.071 576.681C-164.97 576.624 -160.848 576.461 -156.705 576.195C-152.645 575.848 -148.668 575.385 -144.753 574.806C-141.024 574.111 -137.379 573.312 -133.878 572.375C-130.626 571.31 -127.56 570.094 -124.764 568.717C-122.34 567.177 -120.248 565.417 -118.342 563.519C-116.644 561.504 -115.214 559.351 -113.992 557.059C-112.936 554.674 -111.983 552.196 -111.154 549.626C-110.409 546.975 -109.767 544.22 -109.187 541.326C-108.648 538.35 -107.985 535.352 -107.364 532.296C-106.929 529.216 -106.411 526.033 -105.707 522.768C-104.878 519.411 -103.759 516.077 -102.413 512.696C-100.901 509.223 -99.1816 505.646 -97.193 502.011C-94.9559 498.306 -92.3252 494.532 -89.4044 490.631C-85.9659 486.752 -81.7816 483.001 -77.2038 479.17C-72.2531 475.28 -66.9709 471.297 -61.2952 467.188C-55.1017 463.136 -48.4317 459.061 -41.5339 455.032C-39.4003 450.806 -35.1953 446.72 -30.141 442.668C-24.6518 438.604 -18.9761 434.633 -13.114 430.697C-7.41756 426.796 -1.88684 423.126 3.87172 419.56C9.79598 416.053 15.9481 412.626 22.2659 409.303C28.6873 406.004 35.3573 402.693 42.0895 399.428C48.9251 396.21 55.9887 393.015 63.1558 389.889C70.4265 386.763 77.9458 383.626 85.5893 380.488C93.3986 377.363 101.311 374.225 109.224 371.146C117.469 367.997 125.92 364.825 134.661 361.56C143.61 358.272 152.579 354.996 161.445 351.813C170.518 348.664 179.57 345.549 188.58 342.505C197.674 339.425 206.623 336.427 215.509 333.544C224.727 330.662 233.53 327.767 242.147 324.885C250.599 322.083 258.864 319.432 266.942 316.885C274.938 314.35 282.664 311.988 290.204 309.777C297.827 307.601 305.16 305.551 312.452 303.572C319.411 301.65 326.081 299.763 332.441 297.98C338.821 296.221 344.869 294.635 350.752 293.095C356.552 291.625 362.352 290.397 367.883 289.436C373.393 288.487 378.613 287.631 383.605 286.832C388.576 286.091 393.361 285.408 398.022 284.806C407.302 283.671 415.733 282.791 423.169 282.178C430.688 281.738 437.379 281.402 443.075 281.182C448.772 281.009 453.619 280.904 457.513 280.87C465.198 281.009 469.237 281.147 469.237 281.147C469.237 281.147 466.607 283.197 462.692 286.299C460.745 287.874 458.507 289.726 456.208 291.74C453.888 293.778 451.547 295.954 449.145 298.119C446.845 300.296 444.484 302.484 442.309 304.533C440.03 306.605 438 308.538 436.281 310.205C432.946 313.505 430.895 315.658 430.895 315.658C430.895 315.658 426.753 315.774 418.819 316.133C414.8 316.422 409.705 316.839 403.635 317.395C397.587 318.043 390.503 318.876 382.424 319.942C374.263 321.088 365.086 322.558 354.791 324.433C349.53 325.441 344.041 326.529 338.282 327.721C332.379 328.937 326.289 330.303 320.074 331.819C313.839 333.382 307.294 335.049 300.541 336.809C293.705 338.627 286.683 340.537 279.35 342.586C272.079 344.635 264.581 346.765 257.02 348.999C249.294 351.292 241.485 353.642 233.302 356.119C225.224 358.643 216.938 361.282 208.508 363.968C200.056 366.677 191.46 369.467 182.988 372.292C174.598 375.256 166.188 378.266 157.861 381.334C149.783 384.344 141.808 387.388 133.978 390.445C126.458 393.512 118.939 396.58 111.254 399.718C103.652 402.797 96.5264 405.877 89.96 408.956C83.8493 412.012 78.0286 415.069 72.0629 418.241C66.3251 421.389 60.6494 424.562 54.953 427.757C49.4223 430.929 43.9952 434.055 38.713 437.227C33.6173 440.376 28.6252 443.524 23.8195 446.685C19.9045 449.788 17.8952 452.786 16.031 455.912C9.58883 459.003 3.37458 462.163 -2.17683 465.358C-7.41753 468.646 -12.4511 471.969 -17.1325 475.338C-21.5032 478.741 -25.7703 482.18 -29.2089 485.803C-32.1503 489.438 -34.8017 493.039 -37.0389 496.604C-38.8824 500.124 -40.4153 503.574 -41.6374 506.977C-42.5489 510.427 -43.191 513.773 -43.5224 517.072C-43.5846 520.325 -43.3567 523.544 -42.9424 526.681C-42.1967 529.807 -41.3889 532.863 -40.581 535.815C-39.6903 538.732 -38.6546 541.627 -37.5153 544.498C-36.3553 547.322 -35.1953 550.066 -34.1182 552.752C-33.0618 555.415 -32.0468 558.031 -31.2596 560.578C-30.6175 563.09 -30.1618 565.533 -29.8925 567.941C-29.8303 570.326 -29.9339 572.653 -30.576 575.003C-31.4875 577.33 -32.6682 579.61 -34.0975 581.833C-35.8375 584.009 -37.8675 586.128 -40.1667 588.189C-42.6524 590.215 -45.4489 592.16 -48.556 594C-52.181 595.737 -56.0753 597.381 -60.2181 598.909C-64.5888 600.368 -69.1252 601.711 -73.5995 602.984C-78.2602 604.176 -82.983 605.276 -87.7887 606.283C-92.7187 607.21 -97.7316 608.043 -102.765 608.796C-107.84 609.467 -112.957 610.046 -118.011 610.532C-123.148 610.937 -128.202 611.238 -133.319 611.47C-138.684 611.667 -144.131 611.736 -149.476 611.701C-154.861 611.597 -160.226 611.377 -165.384 611.099C-170.563 610.729 -175.596 610.312 -180.464 609.837C-185.332 609.316 -190.055 608.726 -194.571 608.113C-199.148 607.406 -203.581 606.689 -207.828 605.913C-216.258 604.223 -223.923 602.498 -230.841 600.796C-237.698 598.944 -243.912 597.034 -249.215 595.285C-254.518 593.422 -259.054 591.743 -262.617 590.354C-269.722 587.413 -273.45 585.804 -273.45 585.804C-273.45 585.804 -275.232 583.026 -277.904 578.707C-279.188 576.496 -280.7 573.891 -282.316 571.055C-283.932 568.149 -285.589 564.989 -287.122 561.863C-288.613 558.668 -290.001 555.438 -291.202 552.405C-292.342 549.314 -293.357 546.35 -294.102 543.826C-295.47 538.675 -296.236 535.144 -296.236 535.144Z" stroke="white"/>
<path d="M-256.981 607.411C-256.981 607.411 -252.715 608.859 -244.618 611.431C-240.601 612.625 -235.527 614.05 -229.584 615.614C-223.661 617.074 -216.62 618.661 -208.627 620.33C-200.716 621.743 -192.019 623.087 -182.451 624.339C-177.606 624.895 -172.594 625.404 -167.417 625.856C-162.24 626.239 -156.897 626.54 -151.513 626.749C-146.191 626.876 -140.724 626.934 -135.174 626.911C-129.666 626.806 -123.971 626.61 -118.214 626.331C-112.519 625.984 -106.638 625.567 -100.757 625.034C-94.8963 624.42 -89.305 623.759 -83.6723 623.006C-78.1018 622.184 -72.5312 621.257 -66.9814 620.237C-61.5972 619.125 -56.1716 617.931 -50.7874 616.645C-45.4653 615.29 -40.0812 613.841 -34.7591 612.3C-29.6234 610.678 -24.5913 608.975 -19.6834 607.191C-15.0447 605.348 -10.4474 603.425 -6.1401 601.421C-2.30904 599.37 1.25281 597.238 4.54544 595.06C7.52745 592.858 10.261 590.634 12.601 588.374C14.2784 586.161 15.6451 583.914 16.722 581.631C17.571 579.337 18.1302 577.02 18.5236 574.679C18.6479 572.327 18.5029 569.975 18.0473 567.577C17.3846 565.167 16.4321 562.734 15.3552 560.301C14.1748 557.844 12.8909 555.376 11.607 552.885C10.1781 550.371 8.66642 547.834 6.98904 545.238C5.1874 542.596 3.38576 539.932 1.68767 537.232C0.0724189 534.509 -1.43929 531.763 -2.82676 528.971C-4.08997 526.121 -5.22893 523.212 -6.16081 520.223C-6.90631 517.211 -7.34118 514.152 -7.44472 511.07C-7.21693 507.93 -6.6578 504.755 -5.72592 501.523C-4.48342 498.244 -2.80604 495.011 -0.652369 491.79C1.70839 488.581 4.37977 485.371 7.46532 482.196C10.965 479.08 14.8375 476.009 19.2277 473.055C24.0942 470.112 29.4162 467.157 34.9661 464.261C40.6195 461.399 46.4593 458.549 51.5535 455.675C53.4173 452.767 55.4467 449.87 57.7867 447.02C60.3546 444.181 64.7862 441.065 69.9011 437.89C75.1818 434.704 80.6488 431.541 86.3436 428.412C92.2041 425.284 98.0232 422.26 103.946 419.375C110.179 416.455 116.557 413.582 123.184 410.72C130.1 407.8 136.769 404.915 143.354 402.1C150.188 399.273 157.125 396.48 164.166 393.723C171.517 390.93 179.221 388.15 187.504 385.346C195.974 382.553 204.423 379.807 212.706 377.154C221.093 374.559 229.128 372.091 237.08 369.658C244.825 367.317 252.425 365.035 259.776 362.926C267.149 360.852 274.231 358.871 281.127 357.017C287.94 355.186 294.567 353.471 300.945 351.849C307.302 350.274 313.577 348.918 319.541 347.655C325.484 346.427 331.179 345.268 336.646 344.202C347.414 342.256 357.127 340.576 365.783 339.232C374.356 337.911 381.79 336.938 388.106 336.185C394.36 335.524 399.641 334.991 403.824 334.62C412.045 334.076 416.394 333.844 416.394 333.844C416.394 333.844 415.09 335.976 413.309 339.197C412.501 340.808 411.652 342.673 410.803 344.619C409.995 346.52 409.25 348.547 408.587 350.586C407.945 352.626 407.448 354.676 407.034 356.611C406.661 358.523 406.433 360.319 407.448 361.536C411.093 363.54 413.702 364.861 413.702 364.861C413.702 364.861 408.069 365.417 397.405 366.564C392.041 367.201 385.435 368.07 377.607 369.148C370.484 370.098 362.801 371.129 354.083 372.45C345.116 373.829 335.341 375.428 325.422 377.131C320.431 378.046 315.213 379.043 309.787 380.143C304.3 381.279 298.501 382.507 292.475 383.839C286.408 385.207 280.05 386.724 273.506 388.347C266.879 390.038 260.087 391.857 253.005 393.792C245.964 395.75 238.82 397.929 231.654 400.165C224.427 402.47 217.304 404.765 210.221 407.174C203.47 409.538 196.574 411.948 189.658 414.404C183.114 416.826 177.792 419.074 172.739 421.379C167.955 423.674 163.337 426.014 159.03 428.401C154.806 430.811 150.705 433.244 146.812 435.712C143.147 438.191 139.647 440.682 136.458 443.22C133.517 445.734 130.887 448.341 128.568 451.029C126.373 453.729 124.385 456.451 117.8 459.151C111.587 461.839 105.685 464.597 100.156 467.389C95.1033 470.158 90.4232 472.927 86.0951 475.685C82.2641 478.431 78.7644 481.131 75.6167 483.819C72.9453 486.472 70.8123 489.114 68.8864 491.778C67.5197 494.42 66.6085 497.05 66.0287 499.657C65.8423 502.229 66.1736 504.79 66.8363 507.327C67.7475 509.807 68.99 512.252 70.5017 514.685C72.2205 517.048 74.1257 519.389 76.2793 521.695C78.5365 523.954 80.8766 526.202 83.2167 528.449C85.6602 530.732 88.0003 532.98 90.3404 535.228C92.5976 537.487 94.7305 539.758 96.7392 542.017C98.4166 544.311 99.8662 546.652 101.192 548.981C102.351 551.367 103.366 553.766 104.215 556.187C104.836 558.632 105.188 561.112 105.354 563.603C105.313 566.117 105.188 568.677 105.002 571.25C104.484 573.868 103.635 576.487 102.517 579.117C101.109 581.77 99.3692 584.412 97.2569 587.042C94.8755 589.684 92.2041 592.302 89.2635 594.886C86.033 597.481 82.5126 600.042 78.7022 602.556C74.5812 605.047 70.0254 607.538 64.7033 610.053C58.9878 612.532 53.0859 614.93 46.977 617.259C40.7437 619.553 34.4277 621.801 28.153 623.968C21.7334 626.077 15.3966 628.093 8.95633 630.016C2.37106 631.87 -4.13139 633.631 -10.5096 635.299C-16.8256 636.898 -23.1624 638.405 -29.4163 639.818C-36.188 641.208 -42.9389 642.506 -49.6277 643.676C-56.2544 644.765 -62.7983 645.773 -69.1972 646.654C-75.6789 647.465 -82.202 648.183 -88.4767 648.798C-94.7928 649.33 -101.026 649.782 -107.052 650.142C-113.14 650.42 -119.063 650.605 -124.799 650.686C-130.556 650.709 -136.147 650.651 -141.552 650.535C-152.279 650.095 -162.261 649.412 -171.414 648.577C-180.65 647.546 -188.912 646.469 -195.953 645.426C-203.077 644.256 -209.165 643.132 -213.97 642.158C-223.703 640.003 -228.859 638.775 -228.859 638.775C-228.859 638.775 -230.371 637.06 -232.669 634.43C-233.85 633.098 -235.299 631.511 -236.915 629.796C-238.571 628.035 -240.373 626.123 -242.216 624.165C-244.038 622.172 -245.902 620.144 -247.641 618.209C-249.381 616.263 -250.976 614.444 -252.363 612.856C-255.138 609.612 -256.981 607.411 -256.981 607.411Z" stroke="white"/>
<path d="M-217.726 653.52C-217.726 653.52 -212.235 654.632 -201.812 656.532C-196.61 657.389 -190 658.385 -182.312 659.439C-174.687 660.354 -165.818 661.246 -156.099 662.011C-146.464 662.544 -135.875 662.856 -124.478 662.938C-118.759 662.856 -112.915 662.694 -106.906 662.439C-100.855 662.115 -94.6385 661.71 -88.2976 661.212C-82.0189 660.655 -75.5537 659.96 -68.9849 659.15C-62.3954 658.281 -55.5779 657.296 -48.6361 656.207C-41.7772 655.037 -34.7318 653.775 -27.79 652.396C-20.7446 650.948 -13.6163 649.407 -6.36372 647.739C0.743849 645.99 7.47843 644.206 14.3581 642.33C21.2791 640.383 28.2417 638.356 35.1835 636.213C42.0838 634.035 49.0878 631.765 56.1953 629.425C63.1993 627.062 70.224 624.641 77.1865 622.139C83.9833 619.579 90.6971 616.937 97.2038 614.238C102.757 611.62 107.958 608.921 112.766 606.153C117.2 603.361 121.345 600.523 125.22 597.638C128.763 594.765 132.058 591.858 135.021 588.927C137.881 586.008 140.471 583.089 142.771 580.158C144.781 577.25 146.501 574.354 147.951 571.47C149.215 568.609 150.645 565.782 151.847 562.99C152.572 560.257 153.153 557.569 153.505 554.905C153.588 552.298 153.339 549.738 152.862 547.201C152.199 544.722 151.288 542.267 150.272 539.857C149.029 537.506 147.454 535.166 145.693 532.872C143.807 530.613 141.776 528.389 139.58 526.165C137.342 523.987 135.062 521.832 132.617 519.712C130.234 517.604 127.851 515.519 125.53 513.446C123.272 511.372 121.179 509.298 119.272 507.19C117.553 505.047 116.081 502.904 115.024 500.738C114.299 498.514 114.154 496.255 114.569 493.95C115.522 491.621 116.931 489.258 118.713 486.86C120.827 484.404 123.272 481.914 126.256 479.377C129.695 476.782 133.55 474.187 137.694 471.616C142.336 469.021 147.392 466.414 152.842 463.831C158.582 461.271 165.171 458.734 169.606 456.197C171.719 453.614 174.102 451.054 176.672 448.529C179.531 445.992 182.868 443.501 186.349 441.092C190.079 438.694 193.974 436.342 198.036 434.037C202.47 431.743 207.133 429.508 212.065 427.318C217.328 425.14 222.716 423.032 228.31 420.982C234.175 418.955 240.143 416.974 246.152 415.051C252.203 413.116 258.005 411.251 264.014 409.409C270.086 407.625 276.157 405.876 282.083 404.22C288.176 402.575 294.144 401.022 300.049 399.54C305.996 398.092 311.861 396.713 317.621 395.427C323.423 394.165 329.101 392.96 334.572 391.825C340.104 390.701 345.679 389.67 351.108 388.685C362.256 386.751 372.762 385.025 382.253 383.519C391.722 382.083 400.218 380.913 407.512 379.963C414.931 379.152 421.168 378.503 426.183 378.028C436.254 377.206 441.641 376.823 441.641 376.823C441.641 376.823 445.371 378.144 451.09 380.194C454.054 381.225 457.618 382.442 461.451 383.739C465.471 385.071 469.781 386.496 474.092 387.921C478.422 389.369 482.857 390.852 487.043 392.265C491.291 393.69 495.207 395.045 498.668 396.238C505.464 398.636 510.002 400.281 510.002 400.281C510.002 400.281 505.485 400.304 497.072 400.455C492.865 400.582 487.664 400.768 481.572 401.057C475.708 401.451 468.87 401.949 461.285 402.621C453.743 403.374 445.495 404.312 436.523 405.424C432.088 406.027 427.488 406.675 422.701 407.359C417.894 408.066 412.879 408.853 407.658 409.687C402.477 410.544 397.317 411.494 392.137 412.491C386.998 413.533 381.942 414.634 376.761 415.792C371.622 416.974 366.152 418.213 360.702 419.511C355.356 420.877 350.051 422.268 344.746 423.739C339.69 425.233 334.592 426.774 329.599 428.372C324.687 429.994 319.839 431.651 315.073 433.353C310.7 435.068 306.473 436.817 302.391 438.613C298.516 440.408 294.765 442.25 291.18 444.115C287.886 445.992 284.819 447.891 282.021 449.826C279.473 451.749 277.421 453.707 275.68 455.664C274.209 457.622 273.028 459.568 269.319 461.422C264.097 463.194 259.642 464.989 255.477 466.82C251.643 468.662 248.1 470.515 244.909 472.392C242.028 474.291 239.397 476.226 236.972 478.184C234.859 480.165 232.994 482.169 231.564 484.196C230.611 486.223 230.362 488.262 230.735 490.301C231.481 492.397 232.434 494.506 233.47 496.649C234.589 498.826 235.915 501.027 237.2 503.263C238.443 505.557 239.645 507.885 240.847 510.26C242.028 512.704 243.085 515.206 244.018 517.79C244.681 520.465 245.137 523.165 245.302 525.945C245.261 528.794 245.074 531.714 244.639 534.679C243.955 537.702 243.044 540.761 241.925 543.854C240.744 547.004 239.189 550.178 237.366 553.399C235.252 556.654 232.745 560.002 229.989 563.384C226.922 566.778 223.793 570.184 221.141 573.601C218.24 577.042 215.235 580.471 211.816 583.934C208.045 587.433 204.025 590.896 199.714 594.337C195.114 597.777 190.224 601.171 185.126 604.519C179.656 607.867 173.957 611.134 167.969 614.342C161.897 617.505 155.639 620.575 149.174 623.54C141.756 626.575 134.026 629.541 126.152 632.425C118.05 635.252 109.948 638.02 101.887 640.708C93.6603 643.349 85.5374 645.909 77.4973 648.423C69.5194 650.913 61.6452 653.311 53.4393 655.663C44.9849 657.98 36.779 660.204 28.6354 662.3C20.2638 664.339 12.1408 666.251 4.2044 668.069C-3.91854 669.83 -12.0622 671.51 -19.9158 673.05C-27.8315 674.545 -35.5193 675.9 -42.8755 677.128C-49.9831 678.321 -56.8834 679.398 -63.5973 680.337C-70.394 681.159 -77.0872 681.866 -83.6352 682.457C-90.2662 682.943 -96.7314 683.302 -103.031 683.569C-115.733 683.777 -127.69 683.673 -138.631 683.314C-149.717 682.712 -159.829 681.947 -168.512 681.124C-177.339 680.14 -184.882 679.167 -190.85 678.321C-202.993 676.329 -209.437 675.147 -209.437 675.147C-209.437 675.147 -209.23 674.058 -209.189 672.321C-209.271 671.406 -209.416 670.34 -209.686 669.158C-210.017 667.942 -210.473 666.61 -210.929 665.278C-211.489 663.911 -212.131 662.509 -212.856 661.142C-213.644 659.74 -214.431 658.455 -215.156 657.331C-216.648 655.06 -217.726 653.52 -217.726 653.52Z" stroke="white"/>
<path d="M-207.157 686.229C-207.157 686.229 -203.394 686.439 -193.798 687.543C-187.408 688.508 -179.426 689.613 -170.079 690.753C-160.69 691.741 -149.688 692.694 -137.632 693.473C-125.638 693.973 -112.465 694.194 -98.4854 694.066C-91.5577 693.822 -84.4232 693.439 -77.1233 692.939C-69.9681 692.322 -62.6682 691.59 -55.2235 690.694C-47.9649 689.694 -40.5203 688.508 -33.0135 687.16C-25.5275 685.695 -17.814 684.067 -9.89363 682.369C-1.78719 680.648 6.67081 678.834 15.2529 676.951C23.8143 674.997 32.3963 672.951 41.2059 670.8C49.9948 668.602 58.6389 666.3 67.2623 663.928C75.865 661.486 84.5299 658.963 92.9672 656.381C101.136 653.823 109.511 651.219 118.01 648.568C126.365 645.87 134.823 643.091 143.281 640.265C151.532 637.37 159.68 634.382 167.683 631.289C175.314 628.173 182.159 625.045 189.128 621.801C195.745 618.475 202.115 615.069 208.277 611.592C214.109 608.092 219.734 604.534 225.11 600.918C230.198 597.29 235.202 593.639 240.145 589.93C244.653 586.232 248.623 582.581 252.304 578.907C255.696 575.256 258.798 571.581 262.272 567.953C265.808 564.349 269.013 560.837 272.239 557.337C275.176 553.884 277.844 550.454 280.511 547.047C283.034 543.698 285.35 540.361 287.336 537.047C289.197 533.803 290.748 530.64 292.216 527.524C293.539 524.478 294.76 521.513 295.628 518.618C296.331 515.804 296.931 513.048 297.51 510.374C298.089 507.757 298.647 505.199 299.247 502.723C299.909 500.292 300.591 497.932 301.336 495.618C302.122 493.374 303.011 491.2 304.045 489.072C305.203 486.99 306.444 484.956 307.85 482.967C309.442 481.037 311.407 479.142 313.702 477.305C316.308 475.491 319.286 473.735 322.698 472.037C326.379 470.375 330.308 468.758 334.465 467.2C338.911 465.677 341.744 464.003 342.406 462.131C343.295 460.27 344.453 458.456 345.776 456.677C347.369 454.922 349.271 453.189 351.525 451.503C353.966 449.829 356.571 448.189 359.384 446.573C362.382 444.968 365.588 443.41 368.938 441.887C372.495 440.387 376.238 438.934 380.105 437.538C384.075 436.143 388.149 434.817 392.347 433.527C396.628 432.259 400.95 431.05 405.251 429.876C409.739 428.736 414.205 427.655 418.941 426.632C423.842 425.678 428.723 424.771 433.438 423.922C438.194 423.085 442.826 422.318 447.376 421.597C452.008 420.922 456.495 420.271 460.838 419.678C465.181 419.097 469.338 418.562 473.391 418.085C477.423 417.632 481.311 417.202 485.158 416.841C492.747 416.155 499.778 415.644 506.251 415.295C512.765 415.027 518.638 414.864 523.766 414.806C528.916 414.795 533.403 414.864 537.043 414.969C544.281 415.237 548.169 415.434 548.169 415.434C548.169 415.434 552.325 417.446 558.446 420.55C561.445 422.132 564.898 424.027 568.559 426.132C572.198 428.306 575.983 430.678 579.726 433.131C583.324 435.643 586.881 438.271 590.107 440.817C593.209 443.375 595.98 445.829 598.275 447.98C602.556 452.422 605.12 455.433 605.12 455.433C605.12 455.433 602.515 454.829 597.593 453.794C595.111 453.305 592.03 452.77 588.411 452.189C584.813 451.677 580.636 451.166 576.003 450.712C571.371 450.34 566.305 450.061 560.845 449.875C558.177 449.864 555.406 449.875 552.594 449.945C549.782 450.026 546.845 450.154 543.846 450.305C540.889 450.491 537.849 450.701 534.727 450.957C531.666 451.259 528.564 451.608 525.421 452.015C522.422 452.503 519.362 453.026 516.342 453.608C513.323 454.236 510.345 454.887 507.388 455.631C504.493 456.387 501.577 457.189 498.682 458.049C495.828 458.933 493.016 459.863 490.203 460.863C487.556 461.91 484.93 463.003 482.324 464.165C479.843 465.34 477.382 466.572 474.983 467.851C472.688 469.165 470.392 470.537 468.138 471.968C465.946 473.444 463.919 475.037 461.914 476.688C460.011 478.409 458.191 480.223 456.495 482.13C454.924 484.084 453.435 486.142 450.457 487.711C446.238 488.863 442.04 490.095 437.884 491.386C433.81 492.735 429.798 494.141 425.807 495.63C421.878 497.165 417.969 498.781 414.123 500.455C410.318 502.199 406.575 504.002 402.894 505.885C399.254 507.839 395.821 509.874 392.471 512.025C389.224 514.292 386.06 516.664 383.021 519.129C379.836 521.722 376.631 524.42 373.487 527.21C370.365 530.071 367.18 533.013 363.933 536.012C360.583 539.117 356.964 542.303 353.324 545.547C349.561 548.861 345.694 552.268 341.682 555.698C337.773 559.175 333.865 562.675 329.956 566.221C326.193 569.814 322.636 573.43 319.1 577.07C314.964 580.848 310.6 584.651 305.927 588.383C301.026 592.127 295.876 595.883 290.169 599.674C284.13 603.487 277.885 607.266 271.412 611.022C264.65 614.778 257.888 618.475 251.25 622.126C244.363 625.743 237.27 629.289 230.032 632.754C222.153 636.242 213.654 639.707 205.134 643.079C196.759 646.324 188.218 649.451 179.636 652.451C170.785 655.405 161.893 658.242 152.918 661.032C143.239 663.858 133.499 666.637 124.152 669.381C114.764 672.125 105.478 674.776 96.5034 677.334C87.3836 679.846 78.3259 682.253 69.5577 684.543C60.7068 686.764 51.98 688.927 43.46 690.997C35.002 693.055 26.6681 695.02 18.3135 696.904C9.83479 698.729 1.31476 700.45 -7.16392 702.055C-15.9114 703.566 -24.7003 704.95 -33.4064 706.171C-42.3401 707.252 -51.2323 708.182 -59.9385 708.938C-67.7968 709.624 -72.3256 710.392 -76.7511 711.089C-81.2592 711.752 -85.6433 712.357 -89.924 712.903C-98.5888 713.915 -106.778 714.729 -114.223 715.345C-121.729 715.903 -128.595 716.31 -134.53 716.624C-140.445 716.903 -145.511 717.077 -149.523 717.194C-157.712 717.345 -161.455 717.659 -161.455 717.659C-161.455 717.659 -164.516 715.717 -168.714 712.95C-170.782 711.578 -173.201 709.961 -175.848 708.206C-178.537 706.415 -181.432 704.485 -184.182 702.624C-186.974 700.729 -189.807 698.764 -192.537 696.857C-195.266 694.927 -197.81 693.113 -199.961 691.555C-204.303 688.369 -207.157 686.229 -207.157 686.229Z" stroke="white"/>
<path d="M-136.196 733.681C-136.196 733.681 -133.446 732.739 -128.298 730.938C-123.957 730.752 -118.478 730.473 -112.192 730.077C-106.093 729.624 -99.0431 729.008 -91.2693 728.252C-83.5368 727.439 -74.9774 726.439 -65.8183 725.265C-61.2491 724.637 -56.5352 723.963 -51.7179 723.219C-46.942 722.44 -42.042 721.615 -37.0593 720.708C-32.2007 719.778 -27.1973 718.778 -22.2146 717.674C-17.3353 716.547 -12.3526 715.338 -7.34928 714.059C-2.49064 712.757 2.4507 711.385 7.37136 709.956C14.4422 708.375 23.5186 706.619 32.6363 704.748C41.5265 702.795 50.4168 700.749 59.245 698.622C67.9492 696.425 76.6948 694.158 85.6264 691.822C94.558 689.439 103.51 686.974 112.731 684.417C121.766 681.837 130.925 679.151 140.374 676.385C149.698 673.572 159.478 670.759 169.422 667.887C179.326 664.993 189.436 661.959 198.946 658.867C207.981 655.74 216.872 652.462 225.7 649.068C234.59 645.604 243.398 642.047 252.019 638.408C259.896 634.828 267.298 631.248 274.493 627.598C281.936 623.913 289.214 620.17 296.305 616.38C303.128 612.602 309.744 608.789 316.133 604.988C322.294 601.187 327.938 597.444 333.293 593.736C338.42 590.051 343.362 586.401 348.096 582.763C352.335 579.275 356.345 575.835 360.17 572.44C364.016 569.104 368.11 565.768 372.224 562.443C376.318 559.189 380.618 555.98 384.794 552.83C389.012 549.761 393.188 546.762 397.241 543.891C401.21 541.101 405.159 538.404 409.108 535.812C413.057 533.325 417.006 530.965 421.058 528.745C425.007 526.687 428.936 524.757 432.926 522.932C436.958 521.2 440.948 519.55 444.959 517.992C449.073 516.516 453.187 515.098 457.26 513.749C461.395 512.482 465.51 511.285 469.645 510.215C473.8 509.204 477.915 508.263 482.008 507.391C486.102 506.577 490.175 505.845 492.635 504.089C494.889 502.218 497.349 500.486 499.892 498.87C502.477 497.324 505.102 495.859 507.728 494.511C510.395 493.209 513.042 491.954 515.688 490.791C518.334 489.652 520.919 488.548 523.462 487.502C526.005 486.467 528.527 485.491 530.988 484.549C533.427 483.619 535.805 482.736 538.121 481.887C540.498 481.12 542.876 480.422 545.212 479.771C547.631 479.155 550.029 478.621 552.428 478.132C554.847 477.691 557.266 477.295 559.622 476.935C562.041 476.621 564.44 476.377 566.776 476.168C569.154 476.04 571.469 475.901 573.702 475.796C575.997 475.761 578.251 475.773 580.442 475.819C582.675 475.959 584.825 476.11 586.914 476.307C591.111 476.819 594.977 477.412 598.45 478.051C601.944 478.841 605.066 479.632 607.713 480.411C610.4 481.306 612.716 482.108 614.556 482.817C618.216 484.235 620.159 485.072 620.159 485.072C620.159 485.072 621.131 488.757 622.144 494.581C622.537 497.533 622.909 501.021 623.157 504.833C623.302 508.728 623.24 512.97 623.074 517.376C622.847 521.793 622.537 526.362 622.165 530.721C621.668 535.173 621.317 539.358 620.986 543.031C621.089 550.319 621.648 555.387 621.648 555.387C621.648 555.387 620.242 554.597 617.616 553.225C616.334 552.633 614.722 551.97 612.819 551.226C610.979 550.552 608.912 549.785 606.638 549.017C604.301 548.32 601.717 547.681 598.864 547.076C597.437 546.809 595.969 546.611 594.46 546.39C592.93 546.251 591.359 546.088 589.705 545.949C588.071 545.844 586.397 545.739 584.66 545.728C582.923 545.774 581.125 545.844 579.264 545.937C577.424 546.065 575.522 546.239 573.578 546.425C571.614 546.658 569.629 546.937 567.582 547.285C565.556 547.634 563.489 548.076 561.359 548.564C559.209 549.145 557.038 549.785 554.805 550.447C552.593 551.179 550.36 551.947 548.106 552.76C545.874 553.644 543.62 554.62 541.346 555.655C539.072 556.724 536.797 557.887 534.544 559.072C531.318 558.782 528.031 558.503 524.702 558.294C521.229 558.189 517.693 558.154 514.117 558.189C510.519 558.282 506.901 558.479 503.221 558.782C499.562 559.165 495.84 559.619 492.077 560.153C488.19 560.781 484.283 561.479 480.313 562.269C476.385 563.141 472.436 564.094 468.487 565.14C464.538 566.291 460.568 567.535 456.516 568.883C452.443 570.383 448.308 571.975 444.132 573.684C439.935 575.521 435.676 577.474 431.355 579.543C426.971 581.74 422.506 584.065 417.957 586.529C413.326 589.098 408.385 591.83 403.216 594.689C397.861 597.665 392.444 600.664 386.862 603.721C380.969 606.871 374.664 610.15 368.213 613.462C361.556 616.845 354.691 620.286 347.683 623.738C340.384 627.249 332.735 630.794 324.878 634.34C316.753 637.943 308.069 641.558 299.096 645.173C290.33 648.777 281.336 652.381 272.012 655.961C261.964 659.588 251.585 663.168 241.475 666.713C231.344 670.224 221.089 673.665 210.71 677.012C200.187 680.325 189.891 683.58 180.153 686.823C170.539 689.962 161.256 692.914 152.014 695.774C142.793 698.564 137.769 700.842 132.931 703.062C127.969 705.259 122.945 707.387 117.9 709.491C112.711 711.537 107.459 713.501 102.228 715.407C96.8736 717.314 91.4981 719.15 86.1019 720.929C80.6231 722.696 75.1442 724.416 69.6446 726.079C64.083 727.706 58.5007 729.287 52.9391 730.798C47.2949 732.286 41.6919 733.704 36.089 735.076C30.4447 736.413 24.8004 737.691 19.2388 738.9C13.5945 740.074 8.03295 741.19 2.67812 742.225C-2.73875 743.248 -8.03155 744.212 -13.1796 745.131C-18.4104 746.026 -23.5999 746.863 -28.6032 747.63C-33.6686 748.386 -38.5893 749.071 -43.4066 749.711C-53.1859 750.873 -62.3036 751.803 -68.7128 753.128C-73.4888 754.93 -77.8719 756.511 -81.7381 757.836C-85.7284 759.138 -89.1811 760.231 -91.9516 761.091C-97.8233 762.765 -100.966 763.637 -100.966 763.637C-100.966 763.637 -102.703 761.661 -105.39 758.754C-106.796 757.301 -108.492 755.604 -110.414 753.803C-112.42 751.989 -114.591 750.083 -116.7 748.269C-118.933 746.444 -121.207 744.631 -123.398 742.934C-125.631 741.237 -127.781 739.644 -129.663 738.272C-133.57 735.506 -136.196 733.681 -136.196 733.681Z" stroke="white"/>
<path d="M-89.3921 780.903C-89.3921 780.903 -86.1819 780.089 -80.1758 778.532C-77.2349 777.765 -73.5691 776.778 -69.3234 775.604C-65.1606 774.442 -60.3557 773.013 -55.1159 771.409C-50.0418 769.736 -44.6156 767.83 -38.8166 765.739C-35.9792 764.67 -33.059 763.554 -30.0974 762.392C-25.7274 761.544 -20.3012 760.858 -14.7715 760.126C-9.32455 759.36 -3.73265 758.535 1.92137 757.651C7.49255 756.733 13.188 755.757 18.9663 754.7C24.6203 753.619 30.4193 752.457 36.239 751.272C42.0173 750.052 47.8991 748.785 53.8845 747.461C59.8285 746.125 65.7931 744.719 71.7785 743.254C77.7225 741.755 83.6665 740.187 89.6104 738.548C95.4716 736.887 101.312 735.179 107.173 733.412C112.889 731.623 118.626 729.787 124.342 727.893C129.955 725.976 135.526 724 141.077 721.967C146.503 719.91 151.908 717.772 157.252 715.599C162.471 713.368 167.607 711.056 172.681 708.65C177.589 706.164 182.415 703.596 187.116 700.865C191.859 698.053 196.685 695.171 201.49 692.231C211.099 688.804 221.558 685.387 232.224 681.983C242.662 678.532 252.914 675.046 262.938 671.536C273.252 668.016 283.4 664.495 293.3 660.951C302.931 657.442 312.333 653.932 321.674 650.47C330.704 647.1 339.526 643.753 348.039 640.465C355.805 637.316 363.178 634.26 370.323 631.274C377.261 628.345 384.054 625.406 390.723 622.512C397.144 619.723 403.377 617.039 409.404 614.46C415.307 611.961 421.023 609.591 426.449 607.395C431.482 605.582 436.39 603.886 441.195 602.294C445.897 600.795 450.494 599.412 454.968 598.18C459.358 597.041 463.666 595.984 467.871 595.054C471.992 594.206 475.989 593.463 479.883 592.847C483.735 592.301 487.504 591.836 491.232 591.452C494.877 591.15 498.481 590.929 502.002 590.767C505.481 590.709 508.919 590.697 512.295 590.778C515.629 590.964 518.902 591.22 522.029 591.534C525.094 591.929 528.077 592.382 530.955 592.893C533.813 593.463 536.609 594.09 539.343 594.787C541.994 595.589 544.521 596.437 546.944 597.367C549.388 596.844 551.77 596.182 554.027 595.601C556.243 595.101 558.356 594.636 560.427 594.206C562.436 593.834 564.424 593.497 566.329 593.184C568.214 592.974 569.995 592.847 571.735 592.765C573.412 592.719 575.069 592.696 576.664 592.707C578.259 592.73 579.77 592.8 581.22 592.928C582.629 593.137 584.016 593.381 585.321 593.637C586.605 593.927 587.827 594.241 588.945 594.613C590.064 595.008 591.12 595.403 592.114 595.81C594.061 596.67 595.821 597.541 597.375 598.378C598.866 599.319 600.088 600.307 601.165 601.097C602.138 601.968 602.946 602.747 603.567 603.386C604.685 604.769 605.12 605.605 605.12 605.605C605.12 605.605 599.943 612.101 591.534 621.943C587.061 626.893 581.614 632.656 575.463 638.873C568.98 645.148 561.69 651.829 553.986 658.522C545.971 665.192 537.707 671.885 529.568 678.148C521.201 684.365 513.31 690.152 506.392 695.09C492.247 704.816 484.294 710.672 484.294 710.672C484.294 710.672 483.01 710.149 482.658 708.708C482.617 707.953 482.534 707.047 482.368 706.024C482.223 704.99 481.954 703.863 481.436 702.724C480.877 701.609 480.152 700.447 479.096 699.354C478.516 698.832 477.895 698.297 477.273 697.751C476.569 697.24 475.72 696.798 474.829 696.345C474.705 695.171 474.871 693.637 475.016 692.092C475.057 690.605 475.099 689.129 475.119 687.607C475.016 686.178 474.871 684.702 474.684 683.238C474.394 681.785 474.084 680.356 473.752 678.904C473.338 677.509 472.862 676.115 472.261 674.744C471.516 673.465 470.708 672.187 469.797 670.932C468.844 669.712 467.767 668.539 466.504 667.458C465.178 666.424 463.728 665.424 462.196 664.46C460.601 663.554 458.882 662.694 457.039 661.88C455.154 661.125 453.125 660.428 450.991 659.789C448.651 659.278 446.186 658.824 443.577 658.429C440.885 658.104 438.047 657.848 435.065 657.651C431.958 657.535 428.748 657.5 425.393 657.511C421.851 657.639 418.206 657.825 414.396 658.104C410.44 658.452 406.256 658.929 401.928 659.475C397.434 660.103 392.753 660.835 387.886 661.648C382.791 662.589 377.468 663.647 371.897 664.797C366.16 666.052 360.092 667.446 353.755 668.969C347.251 670.677 340.376 672.64 333.065 674.79C325.402 677.091 317.366 679.519 308.999 682.064C300.197 684.737 294.481 687.398 289.303 690.105C283.98 692.847 278.596 695.566 273.273 698.355C268.261 701.19 263.705 704.13 259.169 707.093C254.488 710.103 249.704 713.089 244.816 716.087C239.804 719.062 234.668 722.037 229.449 724.965C224.085 727.87 218.617 730.717 213.046 733.54C207.351 736.306 201.593 738.99 195.732 741.593C189.788 744.068 183.803 746.403 177.797 748.611C171.708 750.679 165.619 752.643 159.509 754.491C153.317 756.292 147.124 758.023 140.932 759.673C134.635 761.323 128.339 762.892 122.126 764.356C115.789 765.809 109.472 767.203 103.176 768.574C96.8385 769.899 90.501 771.223 84.205 772.502C77.8053 773.757 71.4265 774.953 65.0476 776.104C58.6065 777.243 54.4851 778.614 50.7779 780.031C47.0085 781.402 43.2806 782.785 39.5734 784.133C35.8041 785.469 32.0968 786.748 28.4311 788.037C24.7238 789.281 21.0166 790.501 17.3922 791.651C13.7265 792.825 10.04 793.94 6.39487 794.998C2.70837 796.055 -0.936708 797.078 -4.45753 798.065C-8.01977 799.065 -11.4992 800.006 -14.875 800.924C-18.2508 801.842 -21.5439 802.725 -24.754 803.48C-31.195 804.933 -37.1804 806.257 -42.6481 807.454C-48.1778 808.628 -53.1691 809.685 -57.4976 810.58C-61.8883 811.463 -65.699 812.218 -68.7228 812.811C-74.9153 813.996 -78.229 814.612 -78.229 814.612C-78.229 814.612 -78.4776 812.416 -78.9746 809.162C-79.2646 807.559 -79.6581 805.688 -80.1137 803.701C-80.6315 801.702 -81.2321 799.588 -81.9155 797.484C-82.6404 795.393 -83.4274 793.313 -84.2144 791.372C-85.0428 789.455 -85.8713 787.677 -86.6169 786.097C-88.2323 782.971 -89.3921 780.903 -89.3921 780.903Z" stroke="white"/>
<path d="M-78.8149 833.42C-78.8149 833.42 -75.4572 832.853 -69.1976 831.81C-66.1093 831.277 -62.2541 830.605 -57.7979 829.817C-53.4245 829.029 -48.3464 828.079 -42.7294 827.037C-37.1746 825.971 -31.0809 824.778 -24.5312 823.457C-21.2771 822.808 -17.8986 822.113 -14.4372 821.395C-10.9966 820.677 -7.45229 819.924 -3.78363 819.147C-0.177158 818.371 3.53295 817.56 7.32597 816.715C11.0983 815.904 14.9535 815.046 18.8916 814.166C22.7882 813.297 26.7678 812.335 30.8095 811.293C34.8305 810.239 38.893 809.15 42.9762 808.037C46.9972 806.925 51.0804 805.79 55.1429 804.608C59.1432 803.427 63.1642 802.21 67.2266 800.959C71.2062 799.731 75.2272 798.48 79.2897 797.194C83.29 795.908 87.3317 794.564 91.3734 793.197C95.3945 791.83 99.4155 790.428 103.478 789.038C107.458 787.648 111.499 786.223 115.52 784.786C119.521 783.35 125.034 781.971 131.521 780.627C137.905 779.249 144.331 777.789 150.714 776.318C157.078 774.754 163.462 773.097 169.845 771.313C176.291 769.366 182.717 767.27 189.163 765.057C195.609 762.705 201.993 760.272 208.294 757.793C214.491 755.244 220.606 752.638 226.575 750.043C232.461 747.39 238.223 744.725 243.861 742.049C249.395 739.327 254.846 736.592 260.152 733.87C265.334 731.171 270.412 728.506 275.345 725.865C280.133 723.293 284.817 720.756 289.419 718.3C293.854 715.936 298.165 713.677 302.373 711.488C306.477 709.53 310.519 707.873 314.498 706.471C318.416 705.197 322.229 704.039 325.981 702.95C329.65 701.988 333.277 701.084 336.863 700.297C340.407 699.567 343.951 698.918 347.475 698.35C350.895 697.852 354.252 697.423 357.486 697.134C360.636 696.891 363.683 696.763 366.668 696.67C369.57 696.659 372.409 696.717 375.145 696.821C377.798 697.03 380.389 697.273 382.856 697.586C385.281 697.968 387.643 698.385 389.84 698.953C391.975 699.59 394.069 700.297 396.079 701.05C398.048 701.861 399.955 702.729 401.758 703.656C403.479 704.676 405.116 705.718 406.65 706.831C408.122 708.024 409.51 709.229 410.837 710.48C412.122 711.777 413.324 713.11 414.464 714.442C415.5 715.867 416.516 717.303 417.511 718.786C418.464 720.42 419.335 722.007 420.185 723.64C420.993 725.285 421.76 726.988 422.465 728.68C423.086 730.476 423.625 732.225 424.143 733.951C424.579 735.747 424.952 737.508 425.242 739.269C425.47 741.087 425.636 742.895 426.548 743.926C428.268 744.215 429.926 744.505 431.501 744.795C435.025 745.328 439.543 745.432 443.647 745.559C447.731 745.698 451.379 745.803 454.55 745.965C457.742 746.104 460.457 746.254 462.654 746.37C467.069 746.602 469.432 746.753 469.432 746.753C469.432 746.753 469.846 750.24 470.447 755.43C470.758 758.025 471.09 761.06 471.463 764.327C471.815 767.606 472.188 771.07 472.541 774.464C472.893 777.847 473.245 781.253 473.577 784.45C473.888 787.648 474.178 790.648 474.406 793.232C474.924 798.41 475.277 801.839 475.277 801.839C475.277 801.839 472.914 801.735 468.478 801.527C466.281 801.434 463.566 801.353 460.374 801.26C457.203 801.156 453.555 801.04 449.472 800.924C445.388 800.855 440.87 800.797 435.958 800.727C433.491 800.716 430.942 800.692 428.31 800.658C425.677 800.658 422.941 800.646 420.102 800.623C417.304 800.669 414.381 800.704 411.396 800.739C408.391 800.774 405.323 800.82 402.152 800.878C399.002 800.924 395.768 800.994 392.473 801.086C389.136 801.179 385.799 801.295 382.317 801.445C379.829 800.553 377.425 799.522 374.979 798.48C372.513 797.46 370.005 796.452 367.414 795.456C364.823 794.552 362.17 793.649 359.476 792.768C356.781 791.911 354.024 791.1 351.226 790.289C348.407 789.513 345.547 788.76 342.645 788.065C339.744 787.428 336.78 786.802 333.795 786.2C330.79 785.644 327.763 785.122 324.696 784.647C321.649 784.265 318.54 783.917 315.41 783.616C312.28 783.384 309.109 783.176 305.917 783.014C302.705 782.898 299.492 782.817 296.259 782.782C293.004 782.805 289.73 782.875 286.455 782.991C283.159 783.164 279.843 783.396 276.506 783.686C273.169 784.056 269.811 784.508 266.433 785.018C263.033 785.609 259.634 786.258 256.214 786.999C252.774 787.81 249.333 788.69 245.851 789.652C242.389 790.683 238.845 791.911 235.259 793.336C231.611 794.935 227.964 796.591 224.295 798.317C220.585 800.09 216.833 801.897 213.061 803.739C209.268 805.605 205.433 807.47 201.599 809.335C197.702 811.223 193.806 813.088 189.888 814.896C185.909 816.622 181.888 818.267 177.763 819.715C173.576 821.071 169.348 822.391 165.12 823.677C160.85 824.94 156.559 826.191 152.248 827.419C147.916 828.624 143.584 829.794 139.232 830.929C134.879 832.076 130.464 833.177 126.07 834.231C121.655 835.146 117.261 836.038 112.846 836.919C108.39 837.811 103.955 838.691 99.5191 839.56C95.0214 840.406 90.5237 841.252 86.0467 842.086C81.5282 842.931 77.0512 843.742 72.6156 844.577C68.1179 845.411 63.6823 846.222 59.2883 847.033C54.8527 847.844 50.4586 848.643 46.106 849.431C41.7533 850.207 37.4421 850.972 33.1724 851.736C28.8612 852.501 24.6536 853.242 20.4875 853.972C16.3007 854.679 12.1553 855.397 8.13432 856.092C4.05112 856.776 0.0301089 857.448 -3.86654 858.096C-7.78392 858.734 -11.6391 859.359 -15.3699 859.95C-19.1422 860.552 -22.8316 861.132 -26.3759 861.676C-29.9617 862.232 -33.4231 862.765 -36.7808 863.252C-43.5378 864.26 -49.7973 865.163 -55.5179 865.963C-61.2593 866.75 -66.4824 867.457 -70.9802 868.036C-75.5608 868.627 -79.4989 869.114 -82.6494 869.508C-89.0125 870.226 -92.4117 870.585 -92.4117 870.585C-92.4117 870.585 -91.0852 868.28 -89.1991 864.792C-88.3078 863.02 -87.2922 860.969 -86.2766 858.757C-85.3232 856.544 -84.3697 854.181 -83.4785 851.829C-82.6494 849.5 -81.9032 847.195 -81.2814 845.028C-80.7011 842.874 -80.2036 840.869 -79.8098 839.143C-79.1673 835.702 -78.8149 833.42 -78.8149 833.42Z" stroke="white"/>
<path d="M-179.981 256.517C-179.981 256.517 -176.73 256.656 -170.539 256.853C-167.454 256.934 -163.562 257.004 -159.028 257.062C-154.555 257.062 -149.379 257.015 -143.623 256.888C-137.723 256.702 -131.159 256.459 -123.996 256.111C-120.497 255.938 -117.018 255.798 -113.395 255.636C-109.792 255.451 -106.045 255.231 -102.256 254.929C-98.4669 254.628 -94.5538 254.257 -90.5371 253.863C-86.5204 253.435 -82.3795 252.971 -77.9487 252.426C-73.518 251.87 -68.963 251.256 -64.3251 250.561C-59.6873 249.819 -55.0081 249.031 -50.2668 248.162C-45.484 247.235 -40.6599 246.227 -35.815 245.149C-30.8873 244.002 -26.0217 242.774 -21.1769 241.545C-16.3527 240.224 -11.5079 238.822 -6.6216 237.304C-1.79745 235.693 3.006 233.944 7.76804 232.032C12.4473 229.992 17.1265 227.837 21.7436 225.519C26.1537 223.144 30.5223 220.583 34.8289 217.894C39.0112 215.09 43.1107 212.123 47.2102 209.041C51.1647 205.866 55.0779 202.575 58.929 199.168C62.6765 195.703 66.3412 192.134 69.9437 188.484C73.4428 184.764 76.9005 180.998 80.296 177.174C83.6087 173.292 87.0043 169.352 90.317 165.389C93.5676 161.368 96.7561 157.301 99.986 153.199C103.237 149.039 106.487 144.832 109.759 140.626C113.009 136.431 116.343 132.19 119.738 127.914C123.258 123.661 126.881 119.374 130.463 115.121C133.879 110.914 137.171 106.801 140.525 102.617C143.9 98.5269 147.234 94.5638 150.857 90.8209C154.335 87.2286 157.855 83.7175 161.479 80.2527C165.247 76.8574 169.139 73.6012 173.156 70.4261C177.297 67.3669 181.417 64.5626 185.62 61.8163C189.906 59.1511 194.337 56.6249 198.85 54.203C203.426 51.8854 208.022 49.5794 212.639 47.3893C217.277 45.2571 221.915 43.2292 226.636 41.4099C231.584 39.8919 236.512 38.5941 241.357 37.331C246.119 36.0911 250.86 34.8975 255.746 33.9125C260.653 32.9391 265.56 32.0469 270.384 31.1082C275.167 30.1464 279.867 29.2078 284.318 28.246C288.687 27.2842 293.159 26.4615 297.942 25.9053C302.911 25.4533 307.86 25.0361 312.704 24.6422C317.611 24.2713 322.456 23.9701 327.28 23.7499C332.105 23.5529 336.846 23.3791 341.38 23.1473C345.873 22.9156 350.304 22.7186 354.631 22.5332C359 22.3593 363.161 22.1855 367.302 22.0581C371.381 21.9769 375.481 21.9885 379.435 22.0117C383.431 22.0581 387.303 22.1276 391.092 22.2087C394.839 22.2898 398.504 22.3941 402.044 22.4984C405.606 22.6259 409.063 22.7533 412.376 22.904C415.73 23.0894 418.981 23.298 422.149 23.5645C428.443 24.1323 434.199 24.619 439.395 25.0825C444.654 25.6619 449.416 26.3108 453.537 26.9018C457.678 27.5044 461.197 28.0258 464.034 28.4662C469.728 29.3585 472.771 29.8452 472.771 29.8452C472.771 29.8452 474.075 32.2902 476.084 35.9868C477.098 37.8524 478.279 40.031 479.604 42.3833C480.929 44.7472 482.295 47.2155 483.682 49.6489C485.049 52.1172 486.436 54.597 487.761 56.9378C489.086 59.2785 490.329 61.4802 491.405 63.3807C493.6 67.2163 494.904 69.8236 494.904 69.8236C494.904 69.8236 492.068 69.3021 486.809 68.4794C484.2 68.097 480.929 67.6103 477.119 67.0772C473.33 66.5905 468.941 66.0575 463.992 65.4549C459.065 64.8755 453.578 64.2729 447.615 63.6472C444.634 63.3575 441.549 63.1141 438.381 62.9056C435.213 62.697 431.9 62.4884 428.463 62.303C425.068 62.1176 421.527 61.9438 417.904 61.7815C414.219 61.5729 410.409 61.3528 406.413 61.1442C402.479 60.9588 398.463 60.8661 394.322 60.7502C390.139 60.6575 385.936 60.5996 381.63 60.6227C377.365 60.6575 373.017 60.7618 368.627 60.9008C364.072 60.9704 359.497 61.0978 354.859 61.2253C350.262 61.4223 345.728 61.7352 341.173 62.0944C336.66 62.4884 332.105 62.9287 327.819 63.6008C323.574 64.3193 319.309 65.0957 315.085 66.0227C310.882 66.9845 306.679 68.0274 302.228 69.0356C297.694 70.009 293.159 71.0055 288.625 72.1064C284.111 73.2304 279.494 74.3429 274.877 75.5248C270.446 76.8574 266.036 78.2712 261.647 79.7428C257.051 81.3072 252.392 82.9179 247.671 84.5982C243.054 86.3711 238.479 88.2947 233.986 90.311C229.41 92.6286 224.855 95.1432 220.341 97.8432C215.911 100.694 211.625 103.765 207.484 107.102C203.322 110.555 199.036 114.136 194.813 117.809C190.9 121.564 187.152 125.469 183.549 129.513C180.257 133.65 177.152 137.856 174.108 142.132C171.085 146.501 168.27 150.823 165.474 155.18C162.638 159.561 159.76 163.918 156.903 168.252C153.983 172.585 151.002 176.908 148.021 181.218C144.936 185.541 141.788 189.84 138.559 194.093C135.204 198.299 131.83 202.494 128.351 206.596C124.769 210.675 121.063 214.696 117.274 218.613C113.361 222.483 109.427 226.238 105.431 229.957C101.29 233.608 96.9839 237.188 92.5945 240.676C88.0602 244.06 83.4431 247.339 78.7432 250.48C73.8983 253.539 69.0327 256.424 64.1465 259.159C59.1567 261.789 54.0841 264.281 48.908 266.656C43.6904 268.904 38.4729 271.002 33.2139 272.937C27.8721 274.78 22.6753 276.506 17.5199 278.094C12.323 279.612 7.20902 281.002 2.13641 282.289C-2.9155 283.517 -7.86387 284.629 -12.8951 285.753C-18.0298 286.796 -23.0817 287.77 -28.1336 288.616C-33.2476 289.392 -38.196 290.11 -43.103 290.771C-47.9893 291.373 -52.7513 291.906 -57.3891 292.393C-62.234 292.857 -66.996 293.285 -71.5096 293.656C-76.0232 293.969 -80.454 294.236 -84.7191 294.421C-89.0463 294.572 -93.2287 294.664 -97.1004 294.746C-100.993 294.792 -104.74 294.838 -108.384 294.861C-115.61 294.873 -122.256 294.815 -128.116 294.699C-133.954 294.549 -139.213 294.375 -143.706 294.201C-148.241 293.992 -152.133 293.807 -155.197 293.633C-161.533 293.309 -165.053 293.17 -165.053 293.17C-165.053 293.17 -165.467 291.026 -166.274 287.781C-166.75 286.182 -167.351 284.316 -168.034 282.289C-168.8 280.214 -169.67 277.989 -170.581 275.741C-171.554 273.47 -172.589 271.187 -173.562 269.009C-174.639 266.772 -175.695 264.652 -176.647 262.809C-178.635 259.055 -179.981 256.517 -179.981 256.517Z" stroke="white"/>
</g>
</svg>
