<svg width="35" height="35" viewBox="0 0 35 35" fill="none" xmlns="http://www.w3.org/2000/svg">
<path d="M17.5315 0.131104C7.88568 0.131104 0.0639038 8.08478 0.0639038 17.8969C0.0639038 25.7465 5.0689 32.406 12.0093 34.7551C12.8823 34.9196 13.2028 34.3697 13.2028 33.9005C13.2028 33.4768 13.1866 32.0773 13.1791 30.5928C8.31956 31.6675 7.29415 28.4966 7.29415 28.4966C6.49956 26.4431 5.35469 25.8971 5.35469 25.8971C3.76985 24.7944 5.47415 24.8171 5.47415 24.8171C7.2282 24.9421 8.15179 26.6479 8.15179 26.6479C9.70973 29.3639 12.2381 28.5787 13.2349 28.1248C13.3917 26.9768 13.8444 26.1925 14.3439 25.7491C10.4641 25.2999 6.3856 23.7765 6.3856 16.969C6.3856 15.0294 7.06795 13.4445 8.18535 12.2003C8.00398 11.7526 7.40609 9.94589 8.35456 7.49874C8.35456 7.49874 9.82138 7.02125 13.1594 9.31983C14.5527 8.9262 16.047 8.72879 17.5315 8.72202C19.016 8.72879 20.5114 8.9262 21.9074 9.31983C25.2413 7.02125 26.7061 7.49874 26.7061 7.49874C27.6569 9.94589 27.0587 11.7526 26.8774 12.2003C27.9974 13.4445 28.6751 15.0294 28.6751 16.969C28.6751 23.7927 24.5888 25.2952 20.6991 25.735C21.3257 26.2863 21.8839 27.3675 21.8839 29.025C21.8839 31.4019 21.8637 33.315 21.8637 33.9005C21.8637 34.3733 22.1781 34.9272 23.0635 34.7528C30.0002 32.401 34.9988 25.7438 34.9988 17.8969C34.9988 8.08478 27.1782 0.131104 17.5315 0.131104Z" fill="white"/>
<path d="M6.67978 25.6391C6.64131 25.7276 6.50478 25.7538 6.3804 25.6932C6.25371 25.6353 6.18255 25.5149 6.22362 25.4264C6.26123 25.3355 6.39804 25.3105 6.52445 25.3708C6.65143 25.429 6.72375 25.5505 6.67978 25.6391Z" fill="white"/>
<path d="M7.38729 26.4416C7.30398 26.5201 7.14113 26.4837 7.03064 26.3595C6.91638 26.2357 6.89497 26.07 6.97944 25.9903C7.06535 25.9117 7.22328 25.9485 7.33783 26.0724C7.45208 26.1977 7.47436 26.3622 7.38729 26.4416Z" fill="white"/>
<path d="M8.07602 27.4649C7.969 27.5405 7.794 27.4696 7.68582 27.3116C7.57879 27.1536 7.57879 26.9642 7.68813 26.8883C7.7966 26.8123 7.969 26.8806 8.07863 27.0374C8.18536 27.1978 8.18536 27.3875 8.07602 27.4649Z" fill="white"/>
<path d="M9.01954 28.4533C8.92379 28.5607 8.71987 28.5319 8.57061 28.3853C8.41788 28.2421 8.37536 28.0388 8.4714 27.9314C8.5683 27.8237 8.77338 27.854 8.92379 27.9994C9.07536 28.1423 9.12165 28.3471 9.01954 28.4533Z" fill="white"/>
<path d="M10.3212 29.0274C10.279 29.1666 10.0826 29.2298 9.88476 29.1707C9.68719 29.1098 9.5579 28.9468 9.59781 28.8062C9.63889 28.6662 9.83616 28.6003 10.0355 28.6635C10.2327 28.7241 10.3623 28.8859 10.3212 29.0274Z" fill="white"/>
<path d="M11.7507 29.1338C11.7557 29.2803 11.5879 29.4018 11.3802 29.4042C11.1714 29.4092 11.0024 29.2906 11.0001 29.1465C11.0001 28.9985 11.1641 28.8781 11.373 28.8746C11.5807 28.8705 11.7507 28.9882 11.7507 29.1338Z" fill="white"/>
<path d="M13.081 28.9036C13.1059 29.0466 12.9615 29.1934 12.7553 29.2322C12.5525 29.2702 12.3648 29.1819 12.339 29.0401C12.3139 28.8936 12.4608 28.7468 12.6633 28.7088C12.8698 28.6723 13.0547 28.7582 13.081 28.9036Z" fill="white"/>
</svg>
