<svg width="35" height="35" viewBox="0 0 35 35" fill="none" xmlns="http://www.w3.org/2000/svg">
<path fill-rule="evenodd" clip-rule="evenodd" d="M17.5 35C7.83502 35 0 27.165 0 17.5C0 7.83502 7.83502 0 17.5 0C27.165 0 35 7.83502 35 17.5C35 27.165 27.165 35 17.5 35ZM17.7438 16.5178C19.1767 16.5178 26.1438 12.6 26.1438 12.6L26.155 11.9C26.155 11.1272 25.5278 10.5 24.7529 10.5H10.7347C9.96053 10.5 9.33333 11.1272 9.33333 11.9V12.5237C9.33333 12.5237 16.3767 16.5178 17.7438 16.5178ZM9.34453 14.7C9.34383 14.7 16.3767 18.4428 17.7438 18.4428C19.2425 18.4428 26.1438 14.7 26.1438 14.7L26.155 23.1C26.155 23.8728 25.5278 24.5 24.7529 24.5H10.7347C9.96123 24.5 9.33333 23.8728 9.33333 23.1L9.34453 14.7Z" fill="white"/>
</svg>
