<svg width="35" height="35" viewBox="0 0 35 35" fill="none" xmlns="http://www.w3.org/2000/svg">
<path fill-rule="evenodd" clip-rule="evenodd" d="M0 17.5C0 27.165 7.83502 35 17.5 35C27.165 35 35 27.165 35 17.5C35 7.83502 27.165 0 17.5 0C7.83502 0 0 7.83502 0 17.5ZM14.2917 25.5208L14.5894 21.06L14.5892 21.0598L22.704 13.7368C23.0601 13.4207 22.6262 13.2666 22.1535 13.5533L12.1386 19.8715L7.81279 18.5213C6.87859 18.2353 6.87189 17.5933 8.02252 17.1318L24.8794 10.6319C25.6493 10.2823 26.3924 10.8168 26.0985 11.9952L23.2277 25.5231C23.0273 26.4844 22.4464 26.7143 21.6417 26.2703L17.2686 23.0394L15.1667 25.0833C15.16 25.0898 15.1534 25.0962 15.1469 25.1026C14.9118 25.3315 14.7173 25.5208 14.2917 25.5208Z" fill="white"/>
</svg>
